<svg id="Group_40173" data-name="Group 40173" xmlns="http://www.w3.org/2000/svg" width="200" height="182.001" viewBox="0 0 200 182.001">
  <g id="Group_1170" data-name="Group 1170" transform="translate(39.217 47.11)">
    <g id="Group_1150" data-name="Group 1150" transform="translate(11.441 65.219)">
      <path id="Path_39486" data-name="Path 39486" d="M262.967,358.287l1.592,68.79h3.035L267.4,358.46Z" transform="translate(-233.878 -357.525)" fill="#455a64"/>
      <path id="Path_39487" data-name="Path 39487" d="M301.26,357.3l-14.752,69.553h-3.38L295.408,357.3Z" transform="translate(-283.128 -357.301)" fill="#455a64"/>
      <path id="Path_39488" data-name="Path 39488" d="M221.862,358.2l16.324,68.79h3.38l-14.812-69.071Z" transform="translate(-176.079 -357.442)" fill="#455a64"/>
    </g>
    <g id="Group_1169" data-name="Group 1169">
      <g id="Group_1168" data-name="Group 1168">
        <g id="Group_1154" data-name="Group 1154">
          <g id="Group_1153" data-name="Group 1153">
            <g id="Group_1151" data-name="Group 1151">
              <path id="Path_39489" data-name="Path 39489" d="M230.176,272.944s-16.289-.93-14.661,17.919,2.56,37.928,8.61,44.444,67.016,6.748,72.136,1.4-9.773-5.119-12.566-5.119-20.012,1.629-25.6-13.031S253.91,272.014,230.176,272.944Z" transform="translate(-215.4 -272.924)" fill="#455a64"/>
            </g>
            <g id="Group_1152" data-name="Group 1152" transform="translate(0.044 0.031)">
              <path id="Path_39490" data-name="Path 39490" d="M229.2,272.964s-12.452,2.55-11.288,15.581,4.421,35.834,10.47,41.652,29.757,7.086,42.584,6.283c14.892-.931,24.293-3.766,24.293-3.766s2.718,1.747,1.895,2.873-8.084,5.653-43.284,4.9-32.753-5.947-34.214-11.621-4.527-35.919-4.1-42.57S219.324,274.13,229.2,272.964Z" transform="translate(-215.509 -272.964)" fill="#455a64"/>
              <path id="Path_39491" data-name="Path 39491" d="M229.2,272.964s-12.452,2.55-11.288,15.581,4.421,35.834,10.47,41.652,29.757,7.086,42.584,6.283c14.892-.931,24.293-3.766,24.293-3.766s2.718,1.747,1.895,2.873-8.084,5.653-43.284,4.9-32.753-5.947-34.214-11.621-4.527-35.919-4.1-42.57S219.324,274.13,229.2,272.964Z" transform="translate(-215.509 -272.964)" opacity="0.2"/>
            </g>
          </g>
        </g>
        <g id="Group_1167" data-name="Group 1167" transform="translate(19.788 17.768)">
          <g id="Group_1160" data-name="Group 1160">
            <g id="Group_1155" data-name="Group 1155" transform="translate(1.46 5.904)">
              <path id="Path_39492" data-name="Path 39492" d="M293.105,305.276a1.39,1.39,0,1,1-1.349-1.727A1.573,1.573,0,0,1,293.105,305.276Z" transform="translate(-290.407 -303.549)" fill="#455a64"/>
            </g>
            <g id="Group_1157" data-name="Group 1157">
              <g id="Group_1156" data-name="Group 1156">
                <path id="Path_39493" data-name="Path 39493" d="M293.8,295.912a10.082,10.082,0,0,1,.459,2.513,5.939,5.939,0,0,1-.6,2.644,5.532,5.532,0,0,1-.887,1.321,6.073,6.073,0,0,0-.621.674,1.333,1.333,0,0,0-.23,1.035,12.032,12.032,0,0,0,.689,1.69,5.22,5.22,0,0,1,.2,1.568,5.855,5.855,0,0,1-.678,2.62,9.887,9.887,0,0,1-1.573,2.01c.015.023.245-.087.6-.374a5.574,5.574,0,0,0,1.258-1.475,5.881,5.881,0,0,0,.821-2.771,5.373,5.373,0,0,0-.2-1.731,14.669,14.669,0,0,1-.662-1.62c-.125-.515.3-.88.723-1.312a5.742,5.742,0,0,0,.945-1.452,5.964,5.964,0,0,0,.536-2.838,5.616,5.616,0,0,0-.432-1.889C293.976,296.1,293.826,295.9,293.8,295.912Z" transform="translate(-290.562 -295.911)" fill="#455a64"/>
              </g>
            </g>
            <g id="Group_1159" data-name="Group 1159" transform="translate(2.16 5.394)">
              <g id="Group_1158" data-name="Group 1158">
                <path id="Path_39494" data-name="Path 39494" d="M291.38,302.891c-.075.011-.018.407-.189.982a3.451,3.451,0,0,1-1.355,1.827,5.372,5.372,0,0,1-2.211.79c-.613.09-1.008.105-1.012.174s.386.163,1.039.156a4.555,4.555,0,0,0,2.446-.734,3.305,3.305,0,0,0,1.416-2.141C291.617,303.272,291.429,302.873,291.38,302.891Z" transform="translate(-286.613 -302.89)" fill="#455a64"/>
              </g>
            </g>
          </g>
          <g id="Group_1166" data-name="Group 1166" opacity="0.2">
            <g id="Group_1161" data-name="Group 1161" transform="translate(1.46 5.904)">
              <path id="Path_39495" data-name="Path 39495" d="M293.105,305.276a1.39,1.39,0,1,1-1.349-1.727A1.573,1.573,0,0,1,293.105,305.276Z" transform="translate(-290.407 -303.549)"/>
            </g>
            <g id="Group_1163" data-name="Group 1163">
              <g id="Group_1162" data-name="Group 1162">
                <path id="Path_39496" data-name="Path 39496" d="M293.8,295.912a10.082,10.082,0,0,1,.459,2.513,5.939,5.939,0,0,1-.6,2.644,5.532,5.532,0,0,1-.887,1.321,6.073,6.073,0,0,0-.621.674,1.333,1.333,0,0,0-.23,1.035,12.032,12.032,0,0,0,.689,1.69,5.22,5.22,0,0,1,.2,1.568,5.855,5.855,0,0,1-.678,2.62,9.887,9.887,0,0,1-1.573,2.01c.015.023.245-.087.6-.374a5.574,5.574,0,0,0,1.258-1.475,5.881,5.881,0,0,0,.821-2.771,5.373,5.373,0,0,0-.2-1.731,14.669,14.669,0,0,1-.662-1.62c-.125-.515.3-.88.723-1.312a5.742,5.742,0,0,0,.945-1.452,5.964,5.964,0,0,0,.536-2.838,5.616,5.616,0,0,0-.432-1.889C293.976,296.1,293.826,295.9,293.8,295.912Z" transform="translate(-290.562 -295.911)"/>
              </g>
            </g>
            <g id="Group_1165" data-name="Group 1165" transform="translate(2.16 5.394)">
              <g id="Group_1164" data-name="Group 1164">
                <path id="Path_39497" data-name="Path 39497" d="M291.38,302.891c-.075.011-.018.407-.189.982a3.451,3.451,0,0,1-1.355,1.827,5.372,5.372,0,0,1-2.211.79c-.613.09-1.008.105-1.012.174s.386.163,1.039.156a4.555,4.555,0,0,0,2.446-.734,3.305,3.305,0,0,0,1.416-2.141C291.617,303.272,291.429,302.873,291.38,302.891Z" transform="translate(-286.613 -302.89)"/>
              </g>
            </g>
          </g>
        </g>
      </g>
    </g>
  </g>
  <g id="Group_1223" data-name="Group 1223" transform="translate(52.061)">
    <g id="Group_1177" data-name="Group 1177" transform="translate(9.04)">
      <path id="Path_39498" data-name="Path 39498" d="M242.812,211.927c.209-.075.475-.163.83-.256a10.9,10.9,0,0,1,3.7-.328,8.173,8.173,0,0,1,5.028,2.2,7.212,7.212,0,0,1,1.812,2.756,6.05,6.05,0,0,1,.34,1.732c.038.6-.048,1.193-.014,1.762a1.972,1.972,0,0,0,.6,1.446,4.9,4.9,0,0,0,1.431.792,5.124,5.124,0,0,1,1.48.846,4.2,4.2,0,0,1,1.012,1.3,4.083,4.083,0,0,1,.284,2.976,10.189,10.189,0,0,1-1.105,2.339c-.186.3-.344.581-.489.862a3.382,3.382,0,0,0-.025.724,4.924,4.924,0,0,0,1.468,2.775,12.066,12.066,0,0,1,2.007,2.477,2.764,2.764,0,0,1-.13,3.009c-.778.9-2.143.9-3.33.864a101.016,101.016,0,0,0-12.4.695l-3.335-28.739Q242.39,212.032,242.812,211.927Zm10.407,5.083c.184,1.135.02,2.366.563,3.38.578,1.08,1.8,1.621,2.716,2.429a5.663,5.663,0,0,1,1.794,5.189c-.089.479-.241.952-.37,1.424.015-.026.029-.052.044-.078A10.2,10.2,0,0,0,259,227.068a3.75,3.75,0,0,0-.293-2.722,3.865,3.865,0,0,0-.931-1.177,4.809,4.809,0,0,0-1.384-.775,5.189,5.189,0,0,1-1.55-.861,2.378,2.378,0,0,1-.729-1.718c-.035-.621.052-1.209.015-1.765a5.712,5.712,0,0,0-.312-1.619,6.923,6.923,0,0,0-1.7-2.622,7.993,7.993,0,0,0-4.8-2.181,10.416,10.416,0,0,0-1.182-.062,8.909,8.909,0,0,1,2.672.5A6.665,6.665,0,0,1,253.219,217.01Z" transform="translate(-222.201 -210.24)" fill="#263238"/>
      <path id="Path_39499" data-name="Path 39499" d="M265.267,246.209a55.849,55.849,0,0,1,.184-6.907s4.949-.625,5.163-5.677-.289-16.685-.289-16.685l-9.11-4.375-7.951,9.064-.151,24.5Z" transform="translate(-239.92 -210.526)" fill="#ffbe9d"/>
      <g id="Group_1172" data-name="Group 1172" transform="translate(27.671 13.439)">
        <path id="Path_39500" data-name="Path 39500" d="M256.466,229.035a.63.63,0,1,1-.641-.635A.637.637,0,0,1,256.466,229.035Z" transform="translate(-255.009 -227.561)" fill="#263238"/>
        <g id="Group_1171" data-name="Group 1171">
          <path id="Path_39501" data-name="Path 39501" d="M256.347,228.075c-.08.085-.551-.313-1.23-.339s-1.181.318-1.254.226c-.035-.04.047-.2.267-.356a1.636,1.636,0,0,1,1.982.09C256.319,227.874,256.387,228.037,256.347,228.075Z" transform="translate(-253.856 -227.314)" fill="#263238"/>
        </g>
      </g>
      <g id="Group_1174" data-name="Group 1174" transform="translate(20.16 13.569)">
        <path id="Path_39502" data-name="Path 39502" d="M266.008,229.035a.63.63,0,1,1-.642-.635A.638.638,0,0,1,266.008,229.035Z" transform="translate(-264.415 -227.69)" fill="#263238"/>
        <g id="Group_1173" data-name="Group 1173">
          <path id="Path_39503" data-name="Path 39503" d="M266.065,228.243c-.08.085-.553-.313-1.231-.338s-1.181.318-1.253.226c-.036-.041.046-.2.266-.357a1.636,1.636,0,0,1,1.982.09C266.035,228.043,266.1,228.2,266.065,228.243Z" transform="translate(-263.574 -227.482)" fill="#263238"/>
        </g>
      </g>
      <g id="Group_1175" data-name="Group 1175" transform="translate(24.974 14.096)">
        <path id="Path_39504" data-name="Path 39504" d="M258.269,234.229a4.148,4.148,0,0,1,1.105-.168c.173-.013.338-.043.369-.169a1.013,1.013,0,0,0-.107-.554q-.234-.683-.49-1.433a26.042,26.042,0,0,1-1.093-3.741,25.941,25.941,0,0,1,1.37,3.645q.245.754.468,1.441a1.148,1.148,0,0,1,.079.731.433.433,0,0,1-.289.26,1.113,1.113,0,0,1-.3.032A4.2,4.2,0,0,1,258.269,234.229Z" transform="translate(-258.046 -228.164)" fill="#263238"/>
      </g>
      <path id="Path_39505" data-name="Path 39505" d="M266.415,246.525a12.052,12.052,0,0,1-6.554-2.146s1.541,3.68,6.468,3.386Z" transform="translate(-240.883 -217.749)" fill="#eb996e"/>
      <path id="Path_39506" data-name="Path 39506" d="M253.321,227.766a2.691,2.691,0,0,0,.962.023,19.428,19.428,0,0,1,2.368-2.371,3.924,3.924,0,0,0-.189-2.2,10.951,10.951,0,0,1-.353-1.194,2.444,2.444,0,0,1,.071-1.364,3.649,3.649,0,0,1,1.982-1.815c.684-.948,1.924-1.391,2.8-2.2a7.175,7.175,0,0,0,.385-1.363,9.158,9.158,0,0,1,.593-2.222,4.221,4.221,0,0,1,1.283-1.568,4.484,4.484,0,0,1,2.182-.9,5.948,5.948,0,0,1,1.776-.593,6.165,6.165,0,0,1,5.2,1.69,10.613,10.613,0,0,1,8.208,1.268,6.214,6.214,0,0,1,2.6,2.623,8.163,8.163,0,0,1,.491,3.289q.012,1.2.025,2.4a1.04,1.04,0,0,1-.111.591,1.054,1.054,0,0,1-.882.324l-3.7.139a1.348,1.348,0,0,1-.74-.114,1.309,1.309,0,0,1-.582-1.172c.027-.353.012-1.064.019-1.265-.166.791-.319.941-.437,1.435a1.9,1.9,0,0,1-.8,1.284,2.176,2.176,0,0,1-1.064.179q-.8,0-1.6-.038a1.3,1.3,0,0,1-.756-.192,1.239,1.239,0,0,1-.278-1.187,8.5,8.5,0,0,0,.25-1.654c-.479.94-.706,2.113-1.3,2.27a4.033,4.033,0,0,1-1.784-.13c-.6-.186-1.017-.338-1.45-.475a3.791,3.791,0,0,0,.182.727c.448,1.213,1.457,2.38,1.111,3.626-.314,1.132-1.6,1.681-2.248,2.659a4.243,4.243,0,0,0-.141,3.7,34.283,34.283,0,0,1,1.37,3.581,3.435,3.435,0,0,1-.94,3.506,4.658,4.658,0,0,1-2.825.635q-4.49.043-8.981.083a4.964,4.964,0,0,1-1.721-.186,1.684,1.684,0,0,1-1.144-1.2,2.137,2.137,0,0,1,.824-1.786,5.536,5.536,0,0,0,1.365-1.51,3.7,3.7,0,0,0-.508-3.18,5.158,5.158,0,0,1-.935-3.141,2.539,2.539,0,0,1,.265-.754,2.674,2.674,0,0,1-.872-.1,2.181,2.181,0,0,1-.713-.347c-.142-.113-.2-.185-.2-.194A3.912,3.912,0,0,0,253.321,227.766ZM264.8,210.937a4.452,4.452,0,0,0-1.408.776,4,4,0,0,0-1.155,1.483,9.147,9.147,0,0,0-.532,2.151c-.029.155-.063.316-.1.478.437-.754.653-1.643,1.031-2.439A6.1,6.1,0,0,1,264.8,210.937Zm-6.966,8.528a2.81,2.81,0,0,0-1.287,1.329,3.559,3.559,0,0,0,.266,2.308,4.189,4.189,0,0,1,.247,1.82,3.254,3.254,0,0,0,.387-.69C258.042,222.74,257.3,220.932,257.835,219.465Z" transform="translate(-252.372 -209.927)" fill="#263238"/>
      <path id="Path_39507" data-name="Path 39507" d="M262.652,238a1.323,1.323,0,0,0-.785-.969,1.049,1.049,0,0,0-.874.016.751.751,0,0,0-.4.744.865.865,0,0,0,.7.65,2.391,2.391,0,0,0,1.006-.068.708.708,0,0,0,.262-.1.244.244,0,0,0,.11-.242" transform="translate(-237.699 -216.062)" fill="#eb996e"/>
      <g id="Group_1176" data-name="Group 1176" transform="translate(23.157 20.134)">
        <path id="Path_39508" data-name="Path 39508" d="M260.141,235.976c-.05-.006-.135.186-.112.516a1.8,1.8,0,0,0,1.735,1.638c.332,0,.519-.094.509-.143,0-.111-.79-.053-1.411-.64S260.251,235.974,260.141,235.976Z" transform="translate(-260.025 -235.976)" fill="#263238"/>
      </g>
    </g>
    <path id="Path_39509" data-name="Path 39509" d="M216.254,251.381s14.971,13.02,15.359,11.434c2.1-8.618,1.51-19.615,1.172-23.827-.235-.362-.5-.76-.822-1.2a5.658,5.658,0,0,0-1.34-1.306,8.625,8.625,0,0,0-2.035-1.141c-.689-.2-.8-1.115-.2-1.337s2.514.271,4.288,1.758,1.053-2.041.812-3.331-.8-5.309-.456-5.686c.5-.553,1.2-.112,1.41,1.18.213,1.309,1.113,5.132,1.79,4.989s-.645-6.689-.645-6.689-.508-1.361.268-1.551c1.4-.343,2.282,6.709,2.349,7.382.046.468.788.34.711-.16s-1.462-6.507-.039-6.869c1.091-.278.779,5.8,1.758,6.9s-.236-4.642.819-4.865c.393-.083.7-.09.918,3.3a74.533,74.533,0,0,1-.3,8.174c.932,9.3,2.749,37.759-10.107,36.779-15.173-1.156-18.666-13.119-18.666-13.119Z" transform="translate(-172.17 -213.273)" fill="#ffbe9d"/>
    <g id="Group_1186" data-name="Group 1186" transform="translate(1.898 33.735)">
      <g id="Group_1178" data-name="Group 1178" transform="translate(0.238)">
        <path id="Path_39510" data-name="Path 39510" d="M229.788,278.744l2.6-13.022c1.913-10.658,16.854-11.392,16.854-11.392l11.726-.19a23.222,23.222,0,0,1,14.059,4.88c6.283,5.159,10.446,9.07,10.446,9.07l-9.813,11.346L269.85,275.6s2.089,3.771,1.743,6.986c-.329,3.062-3.576,5.458-3.576,5.458l2.437,26.177-38.291-1.534,4.933-33.944Z" transform="translate(-229.788 -254.138)" fill="#ff564f"/>
      </g>
      <g id="Group_1179" data-name="Group 1179" transform="translate(2.061 2.939)">
        <path id="Path_39511" data-name="Path 39511" d="M245.016,269.456a6.583,6.583,0,0,0,.455.956,10.642,10.642,0,0,0,5.984,4.856,10.9,10.9,0,0,0,6.332.068,8.9,8.9,0,0,0,3.3-1.737,5.249,5.249,0,0,0,1.936-3.529,4.04,4.04,0,0,0-1.985-3.761,2.883,2.883,0,0,0-2.313-.154,3.882,3.882,0,0,0-1.867,1.473,4.308,4.308,0,0,0-.782,2.306,5.575,5.575,0,0,0,.522,2.425,9.622,9.622,0,0,0,3.318,3.775,13.485,13.485,0,0,0,10.13,2.179,12,12,0,0,0,4.925-2.12,8.757,8.757,0,0,0,3.146-4.146,6.986,6.986,0,0,0-.162-5.01,4.955,4.955,0,0,0-3.7-3,3.337,3.337,0,0,0-3.719,2.352,3.043,3.043,0,0,0,.39,2.22,4.267,4.267,0,0,0,1.554,1.52,6.192,6.192,0,0,0,4,.5,20.389,20.389,0,0,0,3.586-.979,12.262,12.262,0,0,0,5.309-3.467,7.361,7.361,0,0,0,1.722-4.448,5.659,5.659,0,0,0-.663-2.951,3.773,3.773,0,0,0-.634-.85c-.023.019.236.283.562.889a5.718,5.718,0,0,1,.578,2.906,7.235,7.235,0,0,1-1.738,4.308,12.083,12.083,0,0,1-5.234,3.345,20.288,20.288,0,0,1-3.536.94,5.9,5.9,0,0,1-3.791-.487,3.931,3.931,0,0,1-1.422-1.4,2.691,2.691,0,0,1-.343-1.966,2.981,2.981,0,0,1,3.324-2.065,4.581,4.581,0,0,1,3.4,2.785,6.6,6.6,0,0,1,.141,4.728,8.374,8.374,0,0,1-3.011,3.951,11.621,11.621,0,0,1-4.761,2.046,13.113,13.113,0,0,1-9.827-2.1,9.277,9.277,0,0,1-3.2-3.612,5.18,5.18,0,0,1-.493-2.257,3.942,3.942,0,0,1,.708-2.1,3.515,3.515,0,0,1,1.683-1.341,2.522,2.522,0,0,1,2.032.125,3.708,3.708,0,0,1,1.813,3.428,4.941,4.941,0,0,1-1.806,3.313,8.659,8.659,0,0,1-3.176,1.7,10.733,10.733,0,0,1-6.184-.01,10.581,10.581,0,0,1-4.077-2.36,11.241,11.241,0,0,1-1.9-2.323c-.176-.3-.308-.525-.388-.683A1.376,1.376,0,0,0,245.016,269.456Z" transform="translate(-245.016 -257.941)" fill="#ff564f"/>
      </g>
      <g id="Group_1180" data-name="Group 1180" transform="translate(3.667 32.009)">
        <path id="Path_39512" data-name="Path 39512" d="M252.366,317.775a1,1,0,0,0,.208.09c.141.049.346.139.628.217a10.865,10.865,0,0,0,2.519.435,11.91,11.91,0,0,0,4.017-.463,11.35,11.35,0,0,0,4.639-2.662,11.9,11.9,0,0,0,3.6-9.227,8.036,8.036,0,0,0-1.067-3.723,4.356,4.356,0,0,0-1.455-1.452,3.735,3.735,0,0,0-2.049-.51,2.77,2.77,0,0,0-1.97.905,3.146,3.146,0,0,0-.736,2.081,3.868,3.868,0,0,0,.643,2.14,5.72,5.72,0,0,0,1.6,1.585,10.9,10.9,0,0,0,4.225,1.619,12.849,12.849,0,0,0,8.6-1.733,11.325,11.325,0,0,0,3.147-2.841,7.915,7.915,0,0,0,1.624-3.732,4.793,4.793,0,0,0-1.054-3.712,3.545,3.545,0,0,0-1.562-1.083,3.182,3.182,0,0,0-1.844-.046,3.147,3.147,0,0,0-1.537.906,2.49,2.49,0,0,0-.653,1.6,3.674,3.674,0,0,0,1.4,2.8,6.853,6.853,0,0,0,2.5,1.376,9.925,9.925,0,0,0,2.494.492,9.521,9.521,0,0,0,3.995-.616,8.852,8.852,0,0,0,2.221-1.265,6.239,6.239,0,0,0,.506-.431.9.9,0,0,0,.16-.161c-.013-.015-.245.187-.715.526a9.262,9.262,0,0,1-6.151,1.721,9.724,9.724,0,0,1-2.426-.51,6.585,6.585,0,0,1-2.394-1.344,3.389,3.389,0,0,1-1.279-2.575,2.437,2.437,0,0,1,1.963-2.193,2.848,2.848,0,0,1,1.65.048,3.206,3.206,0,0,1,1.4.987,4.437,4.437,0,0,1,.956,3.437A7.555,7.555,0,0,1,278.609,304a10.917,10.917,0,0,1-3.046,2.736,12.483,12.483,0,0,1-8.329,1.672,10.547,10.547,0,0,1-4.063-1.552,4.18,4.18,0,0,1-2.074-3.395,2.757,2.757,0,0,1,.635-1.823,2.385,2.385,0,0,1,1.7-.78,3.364,3.364,0,0,1,1.84.454,4,4,0,0,1,1.33,1.323,7.7,7.7,0,0,1,1.027,3.549,11.635,11.635,0,0,1-3.447,9,11.21,11.21,0,0,1-4.506,2.652,11.994,11.994,0,0,1-6.45.165C252.663,317.853,252.372,317.757,252.366,317.775Z" transform="translate(-252.366 -295.549)" fill="#ff564f"/>
      </g>
      <g id="Group_1181" data-name="Group 1181" transform="translate(12.772 10.789)">
        <path id="Path_39513" data-name="Path 39513" d="M284.461,268.1a3.484,3.484,0,0,0-.206.832q-.185.937-.451,2.283c-.393,2.024-.9,4.644-1.462,7.54-.559,2.949-1.04,5.623-1.347,7.567-.154.972-.263,1.761-.326,2.308a3.517,3.517,0,0,0-.051.857,3.488,3.488,0,0,0,.206-.832q.186-.937.451-2.283l1.462-7.542c.56-2.947,1.041-5.622,1.347-7.566.153-.972.263-1.762.326-2.309A3.558,3.558,0,0,0,284.461,268.1Z" transform="translate(-280.604 -268.097)" fill="#ff564f"/>
      </g>
      <g id="Group_1182" data-name="Group 1182" transform="translate(0 24.56)">
        <path id="Path_39514" data-name="Path 39514" d="M283.828,286.09a62.406,62.406,0,0,0,7.073.226,62.042,62.042,0,0,0,7.075-.176,62.627,62.627,0,0,0-7.074-.226A62.279,62.279,0,0,0,283.828,286.09Z" transform="translate(-283.828 -285.912)" fill="#ff564f"/>
      </g>
      <g id="Group_1183" data-name="Group 1183" transform="translate(46.104 13.765)">
        <path id="Path_39515" data-name="Path 39515" d="M230.285,283.48a69.173,69.173,0,0,0,4.87-5.638,68.919,68.919,0,0,0,4.558-5.894,138.021,138.021,0,0,0-9.428,11.532Z" transform="translate(-230.283 -271.947)" fill="#ff564f"/>
      </g>
      <g id="Group_1184" data-name="Group 1184" transform="translate(20.733 0.026)">
        <path id="Path_39516" data-name="Path 39516" d="M259.655,254.406a7.419,7.419,0,0,0,1.769.2c1.1.064,2.612.1,4.286.079s3.19-.113,4.283-.21a7.294,7.294,0,0,0,1.762-.253,8.388,8.388,0,0,0-1.777-.031l-4.273.09-4.274.04A8.327,8.327,0,0,0,259.655,254.406Z" transform="translate(-259.655 -254.173)" fill="#ff564f"/>
      </g>
      <g id="Group_1185" data-name="Group 1185" transform="translate(39.435 13.816)">
        <path id="Path_39517" data-name="Path 39517" d="M250.366,283.02a7.275,7.275,0,0,0-.676-1.577l-.832-1.659a3.083,3.083,0,0,1-.579-2.015c.284-1.562.56-3.012.721-4.051a7.306,7.306,0,0,0,.189-1.705,7.255,7.255,0,0,0-.468,1.65c-.234,1.036-.55,2.444-.841,4.053a2.05,2.05,0,0,0,.143,1.242,9.7,9.7,0,0,0,.508,1l.908,1.618A7.325,7.325,0,0,0,250.366,283.02Z" transform="translate(-247.848 -272.013)" fill="#ff564f"/>
      </g>
    </g>
    <g id="Group_1200" data-name="Group 1200" transform="translate(60.501 169.635)">
      <g id="Group_1187" data-name="Group 1187">
        <path id="Path_39518" data-name="Path 39518" d="M209.623,439.5v-7.969l-14.281-.1-.118,11.917.886.066c3.939.255,20.047.748,22.686-.069C221.74,442.441,209.623,439.5,209.623,439.5Z" transform="translate(-195.224 -431.438)" fill="#e8505b"/>
      </g>
      <g id="Group_1189" data-name="Group 1189" transform="translate(0.049 10.942)">
        <g id="Group_1188" data-name="Group 1188">
          <path id="Path_39519" data-name="Path 39519" d="M219.244,445.837c0,.134-5.341.243-11.93.243s-11.931-.11-11.931-.243,5.34-.243,11.931-.243S219.244,445.7,219.244,445.837Z" transform="translate(-195.384 -445.594)" fill="#263238"/>
        </g>
      </g>
      <g id="Group_1191" data-name="Group 1191" transform="translate(14.603 8.229)">
        <g id="Group_1190" data-name="Group 1190">
          <path id="Path_39520" data-name="Path 39520" d="M206,443.547c-.117-.062-.017-.483.29-.9s.679-.638.772-.544-.1.447-.381.832S206.123,443.61,206,443.547Z" transform="translate(-205.956 -442.083)" fill="#263238"/>
        </g>
      </g>
      <g id="Group_1193" data-name="Group 1193" transform="translate(15.501 8.473)">
        <g id="Group_1192" data-name="Group 1192">
          <path id="Path_39521" data-name="Path 39521" d="M204.941,444.144c-.124-.046-.06-.519.222-1.015s.65-.8.754-.715-.073.49-.332.953S205.067,444.193,204.941,444.144Z" transform="translate(-204.881 -442.4)" fill="#263238"/>
        </g>
      </g>
      <g id="Group_1195" data-name="Group 1195" transform="translate(0.231 8.334)">
        <g id="Group_1194" data-name="Group 1194">
          <path id="Path_39522" data-name="Path 39522" d="M224.789,445.017c-.055.039-.268-.171-.577-.522a9.431,9.431,0,0,0-1.253-1.255,3.276,3.276,0,0,0-1.545-.675c-.434-.058-.719.009-.743-.06-.025-.053.24-.251.755-.282a2.843,2.843,0,0,1,1.83.633,5.191,5.191,0,0,1,1.233,1.437C224.734,444.7,224.844,444.98,224.789,445.017Z" transform="translate(-220.67 -442.22)" fill="#263238"/>
        </g>
      </g>
      <g id="Group_1197" data-name="Group 1197" transform="translate(13.317 8.135)">
        <g id="Group_1196" data-name="Group 1196">
          <path id="Path_39523" data-name="Path 39523" d="M208.668,442.022c.07.112-.175.389-.583.538s-.774.1-.793-.032.268-.29.625-.422S208.6,441.906,208.668,442.022Z" transform="translate(-207.291 -441.963)" fill="#263238"/>
        </g>
      </g>
      <g id="Group_1199" data-name="Group 1199" transform="translate(12.763 7.193)">
        <g id="Group_1198" data-name="Group 1198">
          <path id="Path_39524" data-name="Path 39524" d="M209.3,440.974c.012.134-.368.248-.85.254s-.865-.1-.856-.231.39-.247.85-.254S209.289,440.841,209.3,440.974Z" transform="translate(-207.596 -440.744)" fill="#263238"/>
        </g>
      </g>
    </g>
    <g id="Group_1214" data-name="Group 1214" transform="translate(30.354 169.635)">
      <g id="Group_1201" data-name="Group 1201">
        <path id="Path_39525" data-name="Path 39525" d="M248.624,439.5v-7.969l-14.281-.1-.118,11.917.885.066c3.939.255,20.047.748,22.686-.069C260.74,442.441,248.624,439.5,248.624,439.5Z" transform="translate(-234.226 -431.438)" fill="#e8505b"/>
      </g>
      <g id="Group_1203" data-name="Group 1203" transform="translate(0.048 10.942)">
        <g id="Group_1202" data-name="Group 1202">
          <path id="Path_39526" data-name="Path 39526" d="M258.246,445.837c0,.134-5.342.243-11.93.243s-11.931-.11-11.931-.243,5.341-.243,11.931-.243S258.246,445.7,258.246,445.837Z" transform="translate(-234.385 -445.594)" fill="#263238"/>
        </g>
      </g>
      <g id="Group_1205" data-name="Group 1205" transform="translate(14.602 8.229)">
        <g id="Group_1204" data-name="Group 1204">
          <path id="Path_39527" data-name="Path 39527" d="M245,443.547c-.117-.062-.016-.483.291-.9s.679-.638.772-.544-.1.447-.381.832S245.125,443.61,245,443.547Z" transform="translate(-244.957 -442.083)" fill="#263238"/>
        </g>
      </g>
      <g id="Group_1207" data-name="Group 1207" transform="translate(15.501 8.473)">
        <g id="Group_1206" data-name="Group 1206">
          <path id="Path_39528" data-name="Path 39528" d="M243.942,444.144c-.124-.046-.06-.519.221-1.015s.651-.8.754-.715-.073.49-.332.953S244.069,444.193,243.942,444.144Z" transform="translate(-243.882 -442.4)" fill="#263238"/>
        </g>
      </g>
      <g id="Group_1209" data-name="Group 1209" transform="translate(0.23 8.334)">
        <g id="Group_1208" data-name="Group 1208">
          <path id="Path_39529" data-name="Path 39529" d="M263.792,445.017c-.056.039-.269-.171-.578-.522a9.418,9.418,0,0,0-1.252-1.255,3.282,3.282,0,0,0-1.545-.675c-.434-.058-.719.009-.744-.06-.025-.053.24-.251.755-.282a2.84,2.84,0,0,1,1.83.633,5.2,5.2,0,0,1,1.234,1.437C263.734,444.7,263.845,444.98,263.792,445.017Z" transform="translate(-259.671 -442.22)" fill="#263238"/>
        </g>
      </g>
      <g id="Group_1211" data-name="Group 1211" transform="translate(13.317 8.135)">
        <g id="Group_1210" data-name="Group 1210">
          <path id="Path_39530" data-name="Path 39530" d="M247.669,442.022c.07.112-.175.389-.582.538s-.775.1-.793-.032.267-.29.625-.422S247.6,441.906,247.669,442.022Z" transform="translate(-246.293 -441.963)" fill="#263238"/>
        </g>
      </g>
      <g id="Group_1213" data-name="Group 1213" transform="translate(12.763 7.193)">
        <g id="Group_1212" data-name="Group 1212">
          <path id="Path_39531" data-name="Path 39531" d="M248.3,440.974c.013.134-.367.248-.849.254s-.866-.1-.856-.231.39-.247.85-.254S248.291,440.841,248.3,440.974Z" transform="translate(-246.598 -440.744)" fill="#263238"/>
        </g>
      </g>
    </g>
    <path id="Path_39532" data-name="Path 39532" d="M223.378,296.461c.757-6.254,1.594-10.287,1.594-10.287l13.616.2s-1.222,6.879-.846,8.718c.328,1.6,26.6,2.665,33.446,2.773.407-.307,1,.207,1.527-.25a5.514,5.514,0,0,0,1.165-1.437,8.556,8.556,0,0,0,.937-2.122.7.7,0,0,1,1.3-.3c.274.587-.035,2.538-1.336,4.424s2.109.906,3.358.571,5.16-1.181,5.565-.869c.591.458.22,1.194-1.034,1.5-1.27.307-4.955,1.486-4.754,2.155s6.535-1.132,6.535-1.132,1.294-.607,1.554.156c.467,1.378-6.4,2.773-7.061,2.889-.457.081-.261.815.224.7s6.279-1.935,6.768-.538c.375,1.073-5.641,1.2-6.637,2.262s4.553-.573,4.871.467c.118.387-2.19.567-5.508,1.032a84.848,84.848,0,0,1-10.257.366c-7.7.422-34.9.985-40.7.574C220.928,307.837,223.118,298.61,223.378,296.461Z" transform="translate(-222.836 -227.817)" fill="#ffbe9d"/>
    <g id="Group_1222" data-name="Group 1222" transform="translate(4.505 88.689)">
      <g id="Group_1215" data-name="Group 1215" transform="translate(23.472)">
        <path id="Path_39533" data-name="Path 39533" d="M240.253,327.707a203.165,203.165,0,0,0-35.265-.443l14.907,21.4,13.448.053,2.817,65.76H254l-1.7-73.348a13.861,13.861,0,0,0-12.043-13.421Z" transform="translate(-204.988 -326.716)" fill="#263238"/>
        <path id="Path_39534" data-name="Path 39534" d="M240.253,327.707a203.165,203.165,0,0,0-35.265-.443l14.907,21.4,13.448.053,2.817,65.76H254l-1.7-73.348a13.861,13.861,0,0,0-12.043-13.421Z" transform="translate(-204.988 -326.716)" fill="#16161b"/>
      </g>
      <path id="Path_39535" data-name="Path 39535" d="M264.019,350.408s-26.645,1.81-25.98-22.115c0,0,37.048-4.509,44.148,3.135,5.951,6.406.508,83.105.508,83.105l-19.808-.967" transform="translate(-238.027 -326.774)" fill="#16161b"/>
      <g id="Group_1216" data-name="Group 1216" transform="translate(20.455 0.143)">
        <path id="Path_39536" data-name="Path 39536" d="M237.95,326.964a2.529,2.529,0,0,0,.525.033l1.5.062c1.306.06,3.195.168,5.527.332l3.811.3c1.364.129,2.838.247,4.339.514a28.533,28.533,0,0,1,4.642,1.266,6.566,6.566,0,0,1,3.85,3.09,16.174,16.174,0,0,1,1.32,4.946,45.718,45.718,0,0,1,.329,4.819c.075,3.1.223,5.878.321,8.215.092,2.3.168,4.179.222,5.534.022.62.04,1.12.054,1.5a2.582,2.582,0,0,0,.043.526,2.615,2.615,0,0,0,.038-.526c.013-.345.019-.853.022-1.507,0-1.309-.027-3.2-.094-5.542s-.18-5.123-.233-8.212a45.16,45.16,0,0,0-.31-4.862,16.367,16.367,0,0,0-1.353-5.079,5.487,5.487,0,0,0-1.752-2.067,10.093,10.093,0,0,0-2.313-1.208,28.445,28.445,0,0,0-4.714-1.262c-1.547-.264-3.01-.367-4.383-.483s-2.653-.185-3.822-.251c-2.337-.127-4.23-.191-5.541-.2-.655-.007-1.163,0-1.508.013A2.549,2.549,0,0,0,237.95,326.964Z" transform="translate(-237.95 -326.901)" fill="#455a64"/>
      </g>
      <g id="Group_1217" data-name="Group 1217" transform="translate(24.703 81.764)">
        <path id="Path_39537" data-name="Path 39537" d="M240.729,432.534a3.008,3.008,0,0,0,.787.118c.508.05,1.244.109,2.155.173,1.821.128,4.339.277,7.122.418s5.3.245,7.13.3c.913.028,1.653.043,2.164.045a3.027,3.027,0,0,0,.8-.039,3.07,3.07,0,0,0-.788-.117c-.508-.049-1.244-.109-2.155-.173-1.822-.128-4.339-.278-7.121-.419s-5.3-.245-7.127-.3c-.913-.028-1.653-.044-2.164-.046A3.082,3.082,0,0,0,240.729,432.534Z" transform="translate(-240.729 -432.496)" fill="#455a64"/>
      </g>
      <g id="Group_1218" data-name="Group 1218" transform="translate(54.053 82.492)">
        <path id="Path_39538" data-name="Path 39538" d="M204.913,433.64c0,.111,4.139.2,9.243.2s9.244-.09,9.244-.2-4.138-.2-9.244-.2S204.913,433.528,204.913,433.64Z" transform="translate(-204.913 -433.438)" fill="#455a64"/>
      </g>
      <g id="Group_1219" data-name="Group 1219" transform="translate(45.865 8.372)">
        <path id="Path_39539" data-name="Path 39539" d="M216.3,338.043a.917.917,0,0,0,.225-.007l.655-.056c.577-.048,1.427-.118,2.524-.171s2.44-.092,3.995-.019a22.089,22.089,0,0,1,2.473.25,7.858,7.858,0,0,1,2.608.836,2.248,2.248,0,0,1,.969,1.006,9.76,9.76,0,0,1,.5,1.466,25.028,25.028,0,0,1,.647,3.255c.218,2.29.424,4.758.606,7.347.371,5.182.642,10.889.856,16.881.4,11.994.863,22.851,1.185,30.707.173,3.906.314,7.076.413,9.3.056,1.075.1,1.922.133,2.528.018.27.032.487.044.657a.921.921,0,0,0,.029.223.955.955,0,0,0,.012-.225c0-.171,0-.388,0-.659-.014-.608-.033-1.455-.058-2.532-.067-2.228-.165-5.4-.284-9.308-.274-7.883-.65-18.727-1.067-30.708-.213-6-.5-11.709-.888-16.895q-.289-3.895-.645-7.362a24.925,24.925,0,0,0-.679-3.3,10.029,10.029,0,0,0-.532-1.51,2.531,2.531,0,0,0-1.095-1.125,8.076,8.076,0,0,0-2.712-.843,21.789,21.789,0,0,0-2.5-.223,39.183,39.183,0,0,0-4.014.087c-1.1.077-1.948.172-2.523.247l-.652.1A.954.954,0,0,0,216.3,338.043Z" transform="translate(-216.295 -337.547)" fill="#455a64"/>
      </g>
      <g id="Group_1220" data-name="Group 1220" transform="translate(4.456 1.062)">
        <path id="Path_39540" data-name="Path 39540" d="M252.12,328.089a.96.96,0,0,0,.01.273c.022.179.035.45.1.8a8.784,8.784,0,0,0,1.079,2.891,8.929,8.929,0,0,0,6.462,4.273,29.662,29.662,0,0,0,3.426.1l7.826.009h4.36c.745.006,1.517-.013,2.272.012a5.866,5.866,0,0,1,2.2.52,5.939,5.939,0,0,1,3.111,3.365,6.483,6.483,0,0,1,.36,2.4q0,1.267,0,2.559c0,3.442,0,7.005,0,10.656.023,14.6.043,27.806.059,37.4.027,4.767.049,8.632.064,11.333.015,1.319.029,2.351.038,3.08.008.335.015.6.02.8a1.345,1.345,0,0,0,.02.273,1.372,1.372,0,0,0,.021-.273c0-.2.012-.466.02-.8.009-.729.022-1.762.038-3.08.015-2.7.036-6.566.063-11.333.015-9.59.036-22.8.059-37.4,0-3.651,0-7.214,0-10.656q0-1.29,0-2.559a6.867,6.867,0,0,0-.389-2.531A6.3,6.3,0,0,0,280,336.63a6.217,6.217,0,0,0-2.334-.546c-.785-.024-1.535,0-2.287,0l-4.36.019-7.825.041a30.1,30.1,0,0,1-3.392-.07,8.794,8.794,0,0,1-6.362-4.1,9.088,9.088,0,0,1-1.133-2.825c-.073-.342-.1-.61-.135-.786A2.294,2.294,0,0,0,252.12,328.089Z" transform="translate(-252.115 -328.089)" fill="#455a64"/>
      </g>
      <g id="Group_1221" data-name="Group 1221" transform="translate(25.638 18.333)">
        <path id="Path_39541" data-name="Path 39541" d="M265,350.434a23.42,23.42,0,0,0,.347,6.112,23.416,23.416,0,0,0-.347-6.112Z" transform="translate(-264.904 -350.434)" fill="#455a64"/>
      </g>
    </g>
  </g>
  <g id="Group_1226" data-name="Group 1226" transform="translate(184.438 57.06)">
    <path id="Path_39542" data-name="Path 39542" d="M122.681,291.281s.858-6.823.18-6.823-1.084,6.823-1.084,6.823h1.129" transform="translate(-114.85 -284.458)" fill="#263238"/>
    <g id="Group_1224" data-name="Group 1224" transform="translate(4.698 0)">
      <path id="Path_39543" data-name="Path 39543" d="M125.566,291.281s.859-6.823.181-6.823-1.084,6.823-1.084,6.823h1.129" transform="translate(-124.663 -284.458)" fill="#e8505b"/>
      <path id="Path_39544" data-name="Path 39544" d="M125.566,291.281s.859-6.823.181-6.823-1.084,6.823-1.084,6.823h1.129" transform="translate(-124.663 -284.458)" opacity="0.3"/>
    </g>
    <path id="Path_39545" data-name="Path 39545" d="M129.975,291.281s.859-6.823.182-6.823-1.084,6.823-1.084,6.823H130.2" transform="translate(-127.784 -284.458)" fill="#263238"/>
    <path id="Path_39546" data-name="Path 39546" d="M127.818,291.76s0-6.877-.676-6.791-.22,6.9-.22,6.9l1.12-.141" transform="translate(-123.632 -284.574)" fill="#455a64"/>
    <g id="Group_1225" data-name="Group 1225" transform="translate(5.369 0)">
      <path id="Path_39547" data-name="Path 39547" d="M124.7,291.281s.858-6.823.181-6.823-1.084,6.823-1.084,6.823h1.13" transform="translate(-123.793 -284.458)" fill="#e8505b"/>
      <path id="Path_39548" data-name="Path 39548" d="M124.7,291.281s.858-6.823.181-6.823-1.084,6.823-1.084,6.823h1.13" transform="translate(-123.793 -284.458)" fill="#fff" opacity="0.5"/>
    </g>
    <path id="Path_39549" data-name="Path 39549" d="M128.674,304.025l1.132-10.74h-9.1v10.74Z" transform="translate(-120.703 -286.462)" fill="#ff564f"/>
  </g>
  <path id="Path_39550" data-name="Path 39550" d="M112.346,307.235h200v5.372h-10.7l5.541,102.528-3.054,0-5.541-102.526H123.255l-4.723,102.517-3.379.176,5.05-102.693h-7.856Z" transform="translate(-112.346 -233.604)" fill="#263238"/>
  <g id="Group_1229" data-name="Group 1229" transform="translate(73.019 43.014)">
    <g id="Group_1227" data-name="Group 1227">
      <path id="Path_39551" data-name="Path 39551" d="M259.239,266.183l-11.156,32.6H197.565l.372-1.679,20.428-.632,9.411-30.308Z" transform="translate(-197.565 -266.166)" fill="#263238"/>
    </g>
    <g id="Group_1228" data-name="Group 1228" transform="translate(39.193 13.363)">
      <path id="Path_39552" data-name="Path 39552" d="M221.629,285.421a2.318,2.318,0,0,0,1.278,2.923,2.227,2.227,0,0,0,2.486-1.915,2.317,2.317,0,0,0-1.278-2.922A2.226,2.226,0,0,0,221.629,285.421Z" transform="translate(-221.534 -283.454)" fill="#fff"/>
    </g>
  </g>
  <g id="Group_1232" data-name="Group 1232" transform="translate(14.063 37.072)">
    <g id="Group_1230" data-name="Group 1230" transform="translate(0 25.893)">
      <path id="Path_39553" data-name="Path 39553" d="M327.895,293.793a4.67,4.67,0,0,1,3.136-.9c0-.6.022-.977.022-.977h17.1s.537,11.292-8.108,11.691c-3.87.177-6.085-1.557-7.352-3.739a8.607,8.607,0,0,1-1.94.237,4.486,4.486,0,0,1-2.694-.761,3.4,3.4,0,0,1-1.285-2.894A3.306,3.306,0,0,1,327.895,293.793Zm1.173,4.195a4.1,4.1,0,0,0,2.889.31,15.044,15.044,0,0,1-.832-3.713,3.256,3.256,0,0,0-2.142.5,1.675,1.675,0,0,0-.522,1.367A1.788,1.788,0,0,0,329.067,297.988Z" transform="translate(-326.775 -291.913)" fill="#ff564f"/>
    </g>
    <g id="Group_1231" data-name="Group 1231" transform="translate(1.512)">
      <path id="Path_39554" data-name="Path 39554" d="M331.595,283.116a2.313,2.313,0,0,0,.409-.48,4.551,4.551,0,0,0,.7-1.669,4.864,4.864,0,0,0-.254-2.851,9.419,9.419,0,0,0-2.4-2.935,7.066,7.066,0,0,1-2.164-3.834,6.634,6.634,0,0,1,.922-4.9,6.81,6.81,0,0,1,1.9-1.976,10.247,10.247,0,0,1,2.643-1.186,7.935,7.935,0,0,0,2.79-1.4,4.1,4.1,0,0,0,.992-1.3,2.6,2.6,0,0,0,.2-1.678c-.022-.08-.045-.159-.066-.233l-.256.257a2.634,2.634,0,0,1,1.558,2.283,5.286,5.286,0,0,1-.635,2.827c-.42.891-.945,1.728-1.33,2.63a5.58,5.58,0,0,0-.537,2.832,4.034,4.034,0,0,0,1.272,2.436,7.846,7.846,0,0,0,2.142,1.427,44.523,44.523,0,0,1,4.152,1.786,5.8,5.8,0,0,1,2.412,2.676,6.411,6.411,0,0,1,.579,2.7,7.333,7.333,0,0,1-.444,2.333c.006,0,.032-.043.079-.138a3.9,3.9,0,0,0,.185-.429,5.66,5.66,0,0,0,.337-1.763,6.461,6.461,0,0,0-.529-2.793,6.006,6.006,0,0,0-2.472-2.827,41.863,41.863,0,0,0-4.155-1.844,7.559,7.559,0,0,1-2.038-1.378,3.682,3.682,0,0,1-1.152-2.226,5.232,5.232,0,0,1,.523-2.638c.373-.866.9-1.7,1.333-2.613a5.656,5.656,0,0,0,.677-3.042,3.669,3.669,0,0,0-.525-1.549,2.555,2.555,0,0,0-1.3-1.07l-.364-.128.108.386.054.192a2.794,2.794,0,0,1-1.07,2.592,7.626,7.626,0,0,1-2.652,1.328,10.537,10.537,0,0,0-2.732,1.244,7.174,7.174,0,0,0-2,2.094,6.965,6.965,0,0,0-.936,5.163,7.339,7.339,0,0,0,2.293,3.972,9.332,9.332,0,0,1,2.39,2.821,4.773,4.773,0,0,1,.308,2.732A5.341,5.341,0,0,1,331.595,283.116Z" transform="translate(-327.414 -258.415)" fill="#263238"/>
    </g>
  </g>
  <g id="Group_1255" data-name="Group 1255" transform="translate(144.75 39.297)">
    <g id="Group_1243" data-name="Group 1243" transform="translate(5.177)">
      <g id="Group_1234" data-name="Group 1234">
        <g id="Group_1233" data-name="Group 1233">
          <path id="Path_39555" data-name="Path 39555" d="M169.209,268.706l.1-7.39-25.9,2.2-.736,6.6Z" transform="translate(-142.674 -261.316)" fill="#263238"/>
        </g>
      </g>
      <g id="Group_1235" data-name="Group 1235" transform="translate(23.578 0.251)">
        <path id="Path_39556" data-name="Path 39556" d="M146.09,268.935a33.089,33.089,0,0,0,.284-7.294,33.214,33.214,0,0,0-.284,7.294Z" transform="translate(-145.986 -261.641)" fill="#455a64"/>
      </g>
      <g id="Group_1236" data-name="Group 1236" transform="translate(22.413 0.333)">
        <path id="Path_39557" data-name="Path 39557" d="M147.867,261.747a32.977,32.977,0,0,0-.158,7.27,32.98,32.98,0,0,0,.158-7.27Z" transform="translate(-147.572 -261.747)" fill="#455a64"/>
      </g>
      <g id="Group_1238" data-name="Group 1238" transform="translate(5.942 3.561)">
        <path id="Path_39558" data-name="Path 39558" d="M165.207,265.957c-4.513.5-9.82.784-14.409,1.192" transform="translate(-150.798 -265.931)" fill="#fff"/>
        <g id="Group_1237" data-name="Group 1237">
          <path id="Path_39559" data-name="Path 39559" d="M150.8,267.141a11.539,11.539,0,0,0,2.122-.034c1.306-.069,3.11-.177,5.1-.325s3.794-.318,5.094-.478a10.3,10.3,0,0,0,2.093-.354,12,12,0,0,0-2.119.071l-5.1.359c-1.99.148-3.791.3-5.093.443A10.645,10.645,0,0,0,150.8,267.141Z" transform="translate(-150.798 -265.924)" fill="#455a64"/>
        </g>
      </g>
      <g id="Group_1239" data-name="Group 1239" transform="translate(3.954 1.962)">
        <path id="Path_39560" data-name="Path 39560" d="M171.44,270.471a27.359,27.359,0,0,0,.323-6.616,27.357,27.357,0,0,0-.323,6.616Z" transform="translate(-171.344 -263.855)" fill="#455a64"/>
      </g>
      <g id="Group_1240" data-name="Group 1240" transform="translate(2.398 2.036)">
        <path id="Path_39561" data-name="Path 39561" d="M173.09,270.576a27.641,27.641,0,0,0,.652-6.626,27.648,27.648,0,0,0-.652,6.626Z" transform="translate(-173.033 -263.95)" fill="#455a64"/>
      </g>
      <g id="Group_1242" data-name="Group 1242" transform="translate(9.208 5.156)">
        <path id="Path_39562" data-name="Path 39562" d="M163.07,268.1c-2.854.195-5.027.337-7.3.39" transform="translate(-155.769 -268.012)" fill="#fff"/>
        <g id="Group_1241" data-name="Group 1241">
          <path id="Path_39563" data-name="Path 39563" d="M155.769,268.462a16.746,16.746,0,0,0,3.659.005,16.863,16.863,0,0,0,3.641-.395,16.735,16.735,0,0,0-3.66-.007A16.865,16.865,0,0,0,155.769,268.462Z" transform="translate(-155.769 -267.987)" fill="#455a64"/>
        </g>
      </g>
    </g>
    <g id="Group_1245" data-name="Group 1245" transform="translate(0 28.23)">
      <g id="Group_1244" data-name="Group 1244">
        <path id="Path_39564" data-name="Path 39564" d="M175.07,305.195l.705-7.357-25.988.048-1.416,7.216Z" transform="translate(-148.371 -297.838)" fill="#e8505b"/>
        <path id="Path_39565" data-name="Path 39565" d="M175.07,305.195l.705-7.357-25.988.048-1.416,7.216Z" transform="translate(-148.371 -297.838)" fill="#fff" opacity="0.5"/>
      </g>
      <rect id="Rectangle_18044" data-name="Rectangle 18044" width="1.333" height="16.256" transform="translate(5.226 4.221) rotate(-90.096)" fill="#263238"/>
    </g>
    <g id="Group_1249" data-name="Group 1249" transform="translate(3.795 21.489)">
      <g id="Group_1248" data-name="Group 1248">
        <path id="Path_39566" data-name="Path 39566" d="M170.3,296.481l.627-7.363-25.986.322-1.209,6.526Z" transform="translate(-143.733 -289.117)" fill="#263238"/>
        <path id="Path_39567" data-name="Path 39567" d="M169.524,290.414l-.4,4.97-25.276-.254.8-4.55Z" transform="translate(-142.415 -289.412)" fill="#fff"/>
        <g id="Group_1246" data-name="Group 1246" transform="translate(3.563 2.724)">
          <path id="Path_39568" data-name="Path 39568" d="M144.3,293.119a4,4,0,0,0,.913.063l2.486.022c2.1,0,5-.026,8.2-.08s6.1-.126,8.2-.2l2.485-.107a4.031,4.031,0,0,0,.911-.094,3.919,3.919,0,0,0-.911-.063l-2.485-.022c-2.1,0-5,.026-8.2.08s-6.1.127-8.2.2l-2.484.107A4,4,0,0,0,144.3,293.119Z" transform="translate(-144.301 -292.641)" fill="#263238"/>
        </g>
        <g id="Group_1247" data-name="Group 1247" transform="translate(3.563 3.734)">
          <path id="Path_39569" data-name="Path 39569" d="M144.083,294.043a4.07,4.07,0,0,0,.917.091l2.5.1c2.113.066,5.033.131,8.258.177s6.147.065,8.261.058l2.5-.028a4.061,4.061,0,0,0,.918-.066,4.137,4.137,0,0,0-.918-.091l-2.5-.1c-2.114-.066-5.034-.131-8.26-.177s-6.145-.065-8.258-.059l-2.5.029A4.163,4.163,0,0,0,144.083,294.043Z" transform="translate(-144.083 -293.949)" fill="#263238"/>
        </g>
      </g>
    </g>
    <g id="Group_1251" data-name="Group 1251" transform="translate(3.403 14.447)">
      <g id="Group_1250" data-name="Group 1250">
        <path id="Path_39570" data-name="Path 39570" d="M170.987,287.382l.487-7.375-25.976.821-1.083,6.548Z" transform="translate(-144.415 -280.007)" fill="#455a64"/>
        <path id="Path_39571" data-name="Path 39571" d="M171.036,286.759l-25.277-.362.7-4.591,25.05-.463Z" transform="translate(-145.492 -280.31)" fill="#fff"/>
      </g>
    </g>
    <g id="Group_1252" data-name="Group 1252" transform="translate(2.711 7.206)">
      <path id="Path_39572" data-name="Path 39572" d="M172.208,278.026l.239-7.386-25.933,1.692-.863,6.581Z" transform="translate(-145.65 -270.64)" fill="#ff564f"/>
      <rect id="Rectangle_18045" data-name="Rectangle 18045" width="1.333" height="16.255" transform="matrix(-0.065, -0.998, 0.998, -0.065, 4.929, 5.615)" fill="#263238"/>
    </g>
    <g id="Group_1253" data-name="Group 1253" transform="translate(4.115 17.674)">
      <path id="Path_39573" data-name="Path 39573" d="M145.85,284.34a4.717,4.717,0,0,0,.992.082l2.7.075c2.283.045,5.437.08,8.92.094s6.639,0,8.923-.024l2.7-.054a4.769,4.769,0,0,0,.993-.074,4.787,4.787,0,0,0-.99-.083l-2.7-.074c-2.283-.045-5.439-.08-8.925-.094s-6.64,0-8.924.025l-2.7.053A4.665,4.665,0,0,0,145.85,284.34Z" transform="translate(-145.85 -284.182)" fill="#263238"/>
    </g>
    <g id="Group_1254" data-name="Group 1254" transform="translate(3.817 18.823)">
      <path id="Path_39574" data-name="Path 39574" d="M146.008,286.109a4.741,4.741,0,0,0,1,.065l2.725.026c2.3,0,5.476-.016,8.983-.065s6.685-.114,8.983-.182l2.722-.1a4.77,4.77,0,0,0,1-.092,4.878,4.878,0,0,0-1-.064l-2.724-.026c-2.3,0-5.477.016-8.987.065s-6.686.114-8.985.182l-2.722.1A4.838,4.838,0,0,0,146.008,286.109Z" transform="translate(-146.008 -285.668)" fill="#263238"/>
    </g>
  </g>
</svg>
