<svg xmlns="http://www.w3.org/2000/svg" width="200" height="182" viewBox="0 0 200 182">
  <g id="Group_40172" data-name="Group 40172" transform="translate(-16)">
    <g id="Shadow" transform="translate(-0.001 166.434)">
      <ellipse id="_Path_" data-name="&lt;Path&gt;" cx="100" cy="7.783" rx="100" ry="7.783" transform="translate(16)" fill="#f5f5f5"/>
    </g>
    <g id="Character" transform="translate(72.6 0)">
      <g id="Group_147" data-name="Group 147">
        <g id="Group_135" data-name="Group 135" transform="translate(0 35.046)">
          <g id="Group_129" data-name="Group 129" transform="translate(26.05 75.016)">
            <path id="Path_39401" data-name="Path 39401" d="M258.023,379.762l9.722-1.122V322.893h8.326V378.64l9.722,1.122.844,2.764H257.179Z" transform="translate(-257.179 -322.893)" fill="#263238"/>
            <path id="Path_39402" data-name="Path 39402" d="M258.023,379.762l9.722-1.122V322.893h8.326V378.64l9.722,1.122.844,2.764H257.179Z" transform="translate(-257.179 -322.893)" fill="#407bff" opacity="0.4"/>
          </g>
          <g id="Group_134" data-name="Group 134">
            <g id="Group_131" data-name="Group 131">
              <g id="Group_130" data-name="Group 130">
                <path id="Path_39403" data-name="Path 39403" d="M301.985,213.747H258.691a234.966,234.966,0,0,1,11.175,70.878h43.294A234.925,234.925,0,0,0,301.985,213.747Z" transform="translate(-258.691 -213.747)" fill="#407bff"/>
                <path id="Path_39404" data-name="Path 39404" d="M301.985,213.747H258.691a234.966,234.966,0,0,1,11.175,70.878h43.294A234.925,234.925,0,0,0,301.985,213.747Z" transform="translate(-258.691 -213.747)" opacity="0.3"/>
              </g>
              <path id="Path_39405" data-name="Path 39405" d="M298.2,213.747H254.909a234.925,234.925,0,0,1,11.175,70.878h43.294A234.947,234.947,0,0,0,298.2,213.747Z" transform="translate(-252.31 -213.747)" fill="#564fff"/>
            </g>
            <g id="Group_133" data-name="Group 133" transform="translate(8.491 68.484)">
              <path id="Path_39406" data-name="Path 39406" d="M218.091,322.433h61.293c-2.575-5.6-7.261-9.044-12.325-9.044H222.245Z" transform="translate(-205.503 -313.389)" fill="#407bff"/>
              <g id="Group_132" data-name="Group 132">
                <path id="Path_39407" data-name="Path 39407" d="M282.465,322.433h29.594c-2.575-5.6-7.261-9.044-12.324-9.044H289.262c-5.063,0-7.57,2.924-6.8,9.044Z" transform="translate(-282.327 -313.389)" fill="#407bff"/>
                <path id="Path_39408" data-name="Path 39408" d="M282.465,322.433h29.594c-2.575-5.6-7.261-9.044-12.324-9.044H289.262c-5.063,0-7.57,2.924-6.8,9.044Z" transform="translate(-282.327 -313.389)" opacity="0.3"/>
              </g>
            </g>
          </g>
        </g>
        <g id="Group_146" data-name="Group 146" transform="translate(8.764)">
          <g id="Group_145" data-name="Group 145">
            <g id="Group_137" data-name="Group 137" transform="translate(22.41 83.401)">
              <path id="Path_39409" data-name="Path 39409" d="M224.127,395.595l5.546.728,3.609-12.564-5.546-.728Z" transform="translate(-186.231 -315.037)" fill="#ffc3bd"/>
              <path id="Path_39410" data-name="Path 39410" d="M220.125,399.888l-6.224-.818a.4.4,0,0,0-.46.325l-.948,4.885a.991.991,0,0,0,.841,1.113c2.172.247,3.223.256,5.961.615,1.683.221,7.474,1.03,9.82,1.043,2.294.013,2.291-2.307,1.3-2.522-4.452-.966-7.975-2.741-9.378-4.175A1.574,1.574,0,0,0,220.125,399.888Z" transform="translate(-175.988 -320.051)" fill="#263238"/>
              <g id="Group_136" data-name="Group 136" transform="translate(39.639 67.997)">
                <path id="Path_39411" data-name="Path 39411" d="M225.99,383.035l5.548.729-1.863,6.476-5.548-.729Z" transform="translate(-224.127 -383.035)" opacity="0.2"/>
              </g>
              <path id="Path_39412" data-name="Path 39412" d="M222.84,284.1s43.478,3.113,41.723,19.04c-2.522,22.893-12.4,52.953-12.4,52.953l-10.087-1.733s4.25-27.733,6.492-45.571c-10.848-4.5-40.261-.191-43.716-9.558a30.739,30.739,0,0,1-1.3-15.132Z" transform="translate(-203.143 -284.102)" fill="#16161b"/>
              <path id="Path_39413" data-name="Path 39413" d="M223.305,303.394s-1.055,4.734-1.779,9.874c.03.008.068.008.1.015.377.054.753.113,1.115.174.188.038.384.068.565.105.219.038.43.083.641.121a23.849,23.849,0,0,1,2.586.663c.2.06.392.128.58.2.256.083.505.181.739.279-.256,2.042-1.134,4.748-1.142,7.1C236.382,310.494,228.408,303.394,223.305,303.394Z" transform="translate(-182.424 -290.135)" opacity="0.3"/>
              <path id="Path_39414" data-name="Path 39414" d="M218.657,387.228l11.827,1.553,1.6-4.255-11.846-2.653Z" transform="translate(-181.272 -314.675)" fill="#407bff"/>
              <path id="Path_39415" data-name="Path 39415" d="M225.282,401.438a6.935,6.935,0,0,1-1.45-.392.128.128,0,0,1-.085-.114.13.13,0,0,1,.07-.123c.193-.1,1.9-.966,2.544-.611a.487.487,0,0,1,.253.4.716.716,0,0,1-.254.679A1.507,1.507,0,0,1,225.282,401.438Zm-1.071-.533c.965.328,1.7.393,1.991.17a.467.467,0,0,0,.153-.449.232.232,0,0,0-.119-.2C225.89,400.236,224.907,400.581,224.211,400.906Z" transform="translate(-179.308 -320.379)" fill="#407bff"/>
              <path id="Path_39416" data-name="Path 39416" d="M225.553,400.385a.126.126,0,0,1-.057-.022.131.131,0,0,1-.056-.113c0-.068.088-1.678.718-2.144a.65.65,0,0,1,.57-.108.5.5,0,0,1,.417.452c.048.621-.93,1.669-1.524,1.925A.124.124,0,0,1,225.553,400.385Zm1.052-2.146a.384.384,0,0,0-.292.077,2.894,2.894,0,0,0-.6,1.712c.535-.344,1.2-1.15,1.168-1.557-.006-.078-.036-.173-.221-.22A.522.522,0,0,0,226.606,398.239Z" transform="translate(-181.001 -319.71)" fill="#407bff"/>
            </g>
            <path id="Path_39417" data-name="Path 39417" d="M234.693,220.644c.485,2.155,1.063,4.162,1.647,6.225.6,2.044,1.249,4.077,1.958,6.094s1.466,4.028,2.287,6.021,1.731,3.974,2.714,5.938l.175.348.072.1a9.319,9.319,0,0,0,2.168,2.186,16.812,16.812,0,0,0,2.032,1.269,28.456,28.456,0,0,0,3.918,1.7c1.3.453,2.593.835,3.9,1.156a38.542,38.542,0,0,0,3.967.77l1.274-4-3.26-1.833c-1.08-.614-2.148-1.226-3.166-1.863a32.54,32.54,0,0,1-2.846-1.932,9.277,9.277,0,0,1-1.093-.959c-.282-.3-.485-.586-.445-.61l.247.45c-.744-1.828-1.432-3.7-2.1-5.6-.645-1.907-1.274-3.827-1.871-5.766s-1.17-3.892-1.727-5.85c-.572-1.941-1.1-3.953-1.616-5.841Z" transform="translate(-198.604 -180.037)" fill="#ffc3bd"/>
            <g id="Group_138" data-name="Group 138" transform="translate(32.955 35.205)">
              <path id="Path_39418" data-name="Path 39418" d="M260.7,217.6a52.508,52.508,0,0,1,7.549,12.51l-11.878,7.155c-3.43-4.18-7.709-15.239-7.885-18.973C248.214,212.557,255.8,211.979,260.7,217.6Z" transform="translate(-248.477 -213.674)" fill="#407bff"/>
              <path id="Path_39419" data-name="Path 39419" d="M260.7,217.6a52.508,52.508,0,0,1,7.549,12.51l-11.878,7.155c-3.43-4.18-7.709-15.239-7.885-18.973C248.214,212.557,255.8,211.979,260.7,217.6Z" transform="translate(-248.477 -213.674)" fill="#fff" opacity="0.5"/>
            </g>
            <path id="Path_39420" data-name="Path 39420" d="M263.19,226.851c2.592,2.179,4.432,6.708,5.238,11.1l-5.382,3.241a41.174,41.174,0,0,1-5.118-9.535C259.143,227.967,260.9,224.922,263.19,226.851Z" transform="translate(-222.2 -182.414)" fill="#407bff" opacity="0.5"/>
            <g id="Group_140" data-name="Group 140" transform="translate(11.6 83.401)">
              <path id="Path_39421" data-name="Path 39421" d="M251.252,400.289h5.588l2.559-12.94h-5.588Z" transform="translate(-220.181 -316.388)" fill="#ffc3bd"/>
              <path id="Path_39422" data-name="Path 39422" d="M244.7,404.2h-6.277a.4.4,0,0,0-.414.381l-.3,4.966a.99.99,0,0,0,.978.994c2.186-.038,3.23-.166,5.991-.166,1.7,0,7.459.177,9.8.177,2.294,0,2.278-2.319,1.285-2.529-4.457-.942-8.522-2.241-10.1-3.48A1.574,1.574,0,0,0,244.7,404.2Z" transform="translate(-207.867 -321.657)" fill="#263238"/>
              <g id="Group_139" data-name="Group 139" transform="translate(32.306 70.965)">
                <path id="Path_39423" data-name="Path 39423" d="M252.573,387.354h5.59l-1.322,6.67h-5.59Z" transform="translate(-251.251 -387.354)" opacity="0.2"/>
              </g>
              <path id="Path_39424" data-name="Path 39424" d="M247.1,284.1s36.843,3.112,35.937,19.11c-.993,17.519-15.176,56.915-15.176,56.915H257.628s4.628-35.643,6.87-53.481c-10.384,0-31.928,1.955-35.383-7.411a27.516,27.516,0,0,1-.985-14.846Z" transform="translate(-227.541 -284.102)" fill="#16161b"/>
              <path id="Path_39425" data-name="Path 39425" d="M246.152,392.806l12.276.556.945-5.276-12.845.047Z" transform="translate(-216.651 -316.618)" fill="#407bff"/>
              <path id="Path_39426" data-name="Path 39426" d="M251.628,404.973a6.973,6.973,0,0,1-1.489-.2.13.13,0,0,1-.045-.233c.179-.124,1.761-1.206,2.443-.937a.488.488,0,0,1,.3.368.717.717,0,0,1-.164.707A1.509,1.509,0,0,1,251.628,404.973Zm-1.131-.388c1,.2,1.735.168,2-.091a.469.469,0,0,0,.092-.465.231.231,0,0,0-.144-.183C252.075,403.7,251.146,404.172,250.5,404.585Z" transform="translate(-212.816 -321.457)" fill="#407bff"/>
              <path id="Path_39427" data-name="Path 39427" d="M252.16,404.181a.13.13,0,0,1-.129-.119c-.005-.069-.131-1.676.433-2.219a.65.65,0,0,1,.552-.182.5.5,0,0,1,.472.395c.129.609-.7,1.775-1.261,2.107A.128.128,0,0,1,252.16,404.181Zm.764-2.265a.385.385,0,0,0-.28.114,2.9,2.9,0,0,0-.367,1.775c.486-.41,1.041-1.3.955-1.7-.016-.076-.058-.167-.248-.19A.466.466,0,0,0,252.924,401.916Z" transform="translate(-214.807 -320.861)" fill="#407bff"/>
            </g>
            <path id="Path_39428" data-name="Path 39428" d="M230.356,261.505l6.245-1.566-.437,6.681s-6.173.016-6.714-1.819Z" transform="translate(-170.8 -192.982)" fill="#ffc3bd"/>
            <path id="Path_39429" data-name="Path 39429" d="M227.727,263.2l-1.473,4.193-3.715-.771.437-6.681Z" transform="translate(-157.175 -192.983)" fill="#ffc3bd"/>
            <g id="Group_141" data-name="Group 141" transform="translate(8.753 33.85)">
              <path id="Path_39430" data-name="Path 39430" d="M294.61,261.754H264.725c-.211-2.668.407-11.351-.052-22.408a142.042,142.042,0,0,0-2.97-24.375c-.136-.6-.271-1.2-.414-1.8,0,0,1.515-.309,3.685-.625,1.8-.264,4.063-.535,6.279-.641a111.433,111.433,0,0,1,12.7,0c1.953.181,3.859.505,5.382.8,1.944.392,3.09.728,3.09.728S299.788,230.331,294.61,261.754Z" transform="translate(-261.288 -211.719)" fill="#ff564f"/>
              <path id="Path_39431" data-name="Path 39431" d="M294.61,261.754H264.725c-.211-2.668.407-11.351-.052-22.408a142.042,142.042,0,0,0-2.97-24.375c-.136-.6-.271-1.2-.414-1.8,0,0,1.515-.309,3.685-.625,1.8-.264,4.063-.535,6.279-.641a111.433,111.433,0,0,1,12.7,0c1.953.181,3.859.505,5.382.8,1.944.392,3.09.728,3.09.728S299.788,230.331,294.61,261.754Z" transform="translate(-261.288 -211.719)" fill="#ff564f" opacity="0.5"/>
            </g>
            <path id="Path_39432" data-name="Path 39432" d="M305.672,240.808a141.969,141.969,0,0,0-2.97-24.375c2-.173,5.412.023,5.977,3.249C309.29,223.149,309.333,231.246,305.672,240.808Z" transform="translate(-293.535 -179.322)" fill="#407bff" opacity="0.5"/>
            <path id="Path_39433" data-name="Path 39433" d="M296.08,219.456c-.284.53-.485.93-.712,1.389s-.419.894-.62,1.342q-.6,1.343-1.135,2.7a54.746,54.746,0,0,0-1.85,5.583,46.847,46.847,0,0,0-1.225,5.848,34.74,34.74,0,0,0-.364,6.144l0,.2.021.389a6.281,6.281,0,0,0,.113.819,6.6,6.6,0,0,0,.5,1.488,7.619,7.619,0,0,0,1.5,2.124,12.351,12.351,0,0,0,3.14,2.213,27.291,27.291,0,0,0,5.866,2.074,51.763,51.763,0,0,0,5.708,1.021,53.037,53.037,0,0,0,5.715.412l.565-4.157c-3.4-1-6.884-2.066-10.045-3.362a24.664,24.664,0,0,1-4.277-2.157,4.856,4.856,0,0,1-1.24-1.089c-.087-.133-.089-.2-.039-.141a.6.6,0,0,1,.083.179,1.155,1.155,0,0,1,.033.136c0,.012,0,.074.006.046l.01-.148a40.436,40.436,0,0,1,1.978-9.665c.522-1.615,1.1-3.228,1.74-4.822q.47-1.2.989-2.374l.526-1.162.5-1.081Z" transform="translate(-289.229 -180.29)" fill="#ffc3bd"/>
            <g id="Group_142" data-name="Group 142" transform="translate(0 34.939)">
              <path id="Path_39434" data-name="Path 39434" d="M309.9,213.659c5.439-1.719,8.922,2.631,7.417,10.175s-3.441,10.35-3.441,10.35l-12.728-1.8C302.2,224.988,304.334,215.418,309.9,213.659Z" transform="translate(-301.152 -213.285)" fill="#ff564f"/>
              <path id="Path_39435" data-name="Path 39435" d="M309.9,213.659c5.439-1.719,8.922,2.631,7.417,10.175s-3.441,10.35-3.441,10.35l-12.728-1.8C302.2,224.988,304.334,215.418,309.9,213.659Z" transform="translate(-301.152 -213.285)" fill="#ff564f" opacity="0.5"/>
            </g>
            <path id="Path_39436" data-name="Path 39436" d="M279.8,191.26l3.4,2.819,4.628,3.844a14.97,14.97,0,0,0-.293,1.869c-.249,2.509.4,4.793,4.092,5.667,0,0,3.63,3.395-3.633,3.5s-8.954-3.421-8.954-3.421C281.8,202.807,280.741,195.353,279.8,191.26Z" transform="translate(-260.811 -171.395)" fill="#ffc3bd"/>
            <g id="Group_143" data-name="Group 143" transform="translate(16.519 32.052)">
              <path id="Path_39437" data-name="Path 39437" d="M287.336,209.071a22.963,22.963,0,0,0,8.8,5.457,4.077,4.077,0,0,0-3.277,3.839c-3.594-1.068-7.86-6.472-7.745-7.476A22.482,22.482,0,0,0,287.336,209.071Z" transform="translate(-285.115 -209.071)" fill="#fff"/>
            </g>
            <g id="Group_144" data-name="Group 144" transform="translate(27.543 33.169)">
              <path id="Path_39438" data-name="Path 39438" d="M278.824,210.7s3.394,2.849-1.61,4.339A4.563,4.563,0,0,1,281.1,218.5a6.011,6.011,0,0,0,.557-7.327A22.341,22.341,0,0,1,278.824,210.7Z" transform="translate(-277.214 -210.698)" fill="#fff"/>
            </g>
            <path id="Path_39439" data-name="Path 39439" d="M290.536,199.205a14.981,14.981,0,0,0-.294,1.869c-1.727-.347-4.032-2.186-4.274-3.95a8,8,0,0,1-.061-1.764Z" transform="translate(-263.521 -172.677)" opacity="0.2"/>
            <path id="Path_39440" data-name="Path 39440" d="M279.611,172.743c2.287,1.884,1.869,9.2-.318,8.525S275.849,169.643,279.611,172.743Z" transform="translate(-248.163 -165.432)" fill="#263238"/>
            <path id="Path_39441" data-name="Path 39441" d="M275.7,178.611c1.181,5.434,1.6,8.665,4.806,11.144a7.228,7.228,0,0,0,11.694-5.2c.423-5.059-1.581-13.094-7.3-14.633A7.314,7.314,0,0,0,275.7,178.611Z" transform="translate(-258.111 -164.632)" fill="#ffc3bd"/>
            <path id="Path_39442" data-name="Path 39442" d="M281.191,180.063a5.282,5.282,0,0,0,.314-4.725c.942-.754,1.881-3.171,1.152-4.113,1.844-.126,11.376,2.166,13.277-4.681a8.962,8.962,0,0,1-2.988,0s1.938-3.224-1.5-4.187c-.5,1.633-4.648,1.8-6.7,1.717-4.217-.168-9.021,1.587-7.076,4.857C274.576,170.271,274.073,176.247,281.191,180.063Z" transform="translate(-261.794 -162.357)" fill="#263238"/>
            <path id="Path_39443" data-name="Path 39443" d="M303.548,170.58s-2.1.44-1.7-2.245C300.14,169.811,301.239,172.5,303.548,170.58Z" transform="translate(-286.935 -164.226)" fill="#263238"/>
            <path id="Path_39444" data-name="Path 39444" d="M294.716,188.557A4.95,4.95,0,0,0,297.7,190.4c1.536.271,2-1.142,1.324-2.515-.612-1.235-2.147-2.864-3.568-2.511C294.056,185.726,293.8,187.36,294.716,188.557Z" transform="translate(-278.013 -169.541)" fill="#ffc3bd"/>
            <path id="Path_39445" data-name="Path 39445" d="M275.836,185.33a17.19,17.19,0,0,0,2.774,5.545,6.476,6.476,0,0,0,5.611,2.555c1.973-.038,1.672-2.764,1.672-2.764l.967-.22s-.1,3.357,1.821,1.937a5.13,5.13,0,0,0,1.08-2.075,6.8,6.8,0,0,0,.348-1.84h0a9.012,9.012,0,0,1-.077,5.6,5.279,5.279,0,0,1-3.078,2.434,11.809,11.809,0,0,1-7.226-.25c-3.509-1.389-4.017-4.755-4.143-6.681a31.563,31.563,0,0,0-.659-4.236Z" transform="translate(-255.966 -169.541)" fill="#263238"/>
            <path id="Path_39446" data-name="Path 39446" d="M284.514,183.021c.069.446.362.779.654.744s.474-.424.406-.87-.362-.779-.654-.744S284.446,182.576,284.514,183.021Z" transform="translate(-257.622 -168.546)" fill="#263238"/>
            <path id="Path_39447" data-name="Path 39447" d="M277.154,182.146c.069.446.362.779.654.744s.474-.425.4-.87-.362-.779-.654-.744S277.086,181.7,277.154,182.146Z" transform="translate(-245.203 -168.272)" fill="#263238"/>
            <path id="Path_39448" data-name="Path 39448" d="M277.871,182.8a14.367,14.367,0,0,0,2.113,3.178,2.183,2.183,0,0,1-1.8.436Z" transform="translate(-247.462 -168.751)" fill="#ed847e"/>
            <path id="Path_39449" data-name="Path 39449" d="M282.6,190.811a3.879,3.879,0,0,1-2.945-.764.132.132,0,0,1,.173-.2,3.709,3.709,0,0,0,3.22.6.132.132,0,1,1,.067.256A4.4,4.4,0,0,1,282.6,190.811Z" transform="translate(-251.887 -170.943)" fill="#263238"/>
            <path id="Path_39450" data-name="Path 39450" d="M287.094,178.8a.268.268,0,0,1-.117-.06.265.265,0,0,1-.022-.374,2.542,2.542,0,0,1,2.225-.876.26.26,0,0,1,.215.306.264.264,0,0,1-.305.216,2.014,2.014,0,0,0-1.739.706A.267.267,0,0,1,287.094,178.8Z" transform="translate(-263.073 -167.082)" fill="#263238"/>
            <path id="Path_39451" data-name="Path 39451" d="M278.464,177.309a.266.266,0,0,1-.243-.051,2.216,2.216,0,0,0-1.887-.513.265.265,0,0,1-.144-.509h0a2.729,2.729,0,0,1,2.368.615.265.265,0,0,1-.1.458Z" transform="translate(-244.847 -166.677)" fill="#263238"/>
            <path id="Path_39452" data-name="Path 39452" d="M286.345,262.157l5.157,0-2.5,5.5s-5.078-.075-4.821-2.69Z" transform="translate(-263.311 -193.676)" fill="#ffc3bd"/>
            <path id="Path_39453" data-name="Path 39453" d="M284.432,265.7l-2.643,3.569-4.776-1.616,2.5-5.5Z" transform="translate(-251.32 -193.678)" fill="#ffc3bd"/>
          </g>
        </g>
      </g>
    </g>
    <g id="Group_167" data-name="Group 167" transform="translate(23 20.025)">
      <g id="Group_150" data-name="Group 150" transform="translate(1.602 57.554)">
        <rect id="Rectangle_159" data-name="Rectangle 159" width="2.511" height="95.711" transform="translate(14.814 0)" fill="#407bff"/>
        <g id="Group_148" data-name="Group 148" transform="translate(0 0)">
          <rect id="Rectangle_160" data-name="Rectangle 160" width="2.511" height="95.711" fill="#407bff"/>
          <rect id="Rectangle_161" data-name="Rectangle 161" width="2.511" height="95.711" opacity="0.2"/>
        </g>
        <g id="Group_149" data-name="Group 149" transform="translate(157.361)">
          <rect id="Rectangle_162" data-name="Rectangle 162" width="2.511" height="95.711" transform="translate(0 0)" fill="#407bff"/>
          <path id="Path_39454" data-name="Path 39454" d="M142.459,275.632h-2.511v64.306l2.511-5.611Z" transform="translate(-139.948 -275.632)" opacity="0.2"/>
        </g>
        <rect id="Rectangle_163" data-name="Rectangle 163" width="2.511" height="95.711" transform="translate(172.175 0)" fill="#407bff"/>
      </g>
      <g id="Group_153" data-name="Group 153" transform="translate(0 53.584)">
        <path id="Path_39475" data-name="Path 39475" d="M0,55.987H159.872V0H0Z" transform="translate(16.416 4.086)" fill="#564fff"/>
        <rect id="Rectangle_165" data-name="Rectangle 165" width="161.474" height="4.086" transform="translate(16.416 0)" fill="#407bff"/>
        <g id="Group_151" data-name="Group 151" transform="translate(1.602 4.086)">
          <rect id="Rectangle_166" data-name="Rectangle 166" width="14.814" height="55.987" transform="translate(0)" fill="#407bff"/>
          <rect id="Rectangle_167" data-name="Rectangle 167" width="14.814" height="55.987" transform="translate(0)" opacity="0.2"/>
        </g>
        <g id="Group_152" data-name="Group 152" transform="translate(0 0)">
          <rect id="Rectangle_168" data-name="Rectangle 168" width="16.416" height="4.086" fill="#407bff"/>
          <rect id="Rectangle_169" data-name="Rectangle 169" width="16.416" height="4.086" opacity="0.2"/>
        </g>
        <rect id="Rectangle_170" data-name="Rectangle 170" width="174.686" height="2.847" transform="translate(1.602 4.086)" opacity="0.2"/>
      </g>
      <g id="Group_166" data-name="Group 166" transform="translate(9.49)">
        <g id="Group_157" data-name="Group 157" transform="translate(62.879)">
          <path id="Path_39455" data-name="Path 39455" d="M172.809,234.247h59.416a4.36,4.36,0,0,0,4.3-4.112l1.571-34.53a3.906,3.906,0,0,0-3.926-4.112H174.754a4.36,4.36,0,0,0-4.3,4.112l-1.57,34.53A3.905,3.905,0,0,0,172.809,234.247Z" transform="translate(-168.88 -191.493)" fill="#407bff"/>
          <g id="Group_154" data-name="Group 154" transform="translate(0.798)">
            <path id="Path_39456" data-name="Path 39456" d="M171.648,234.247h59.417a4.359,4.359,0,0,0,4.3-4.112l1.571-34.53a3.906,3.906,0,0,0-3.926-4.112H173.593a4.36,4.36,0,0,0-4.3,4.112l-1.57,34.53A3.906,3.906,0,0,0,171.648,234.247Z" transform="translate(-167.719 -191.493)" fill="#407bff"/>
            <path id="Path_39457" data-name="Path 39457" d="M171.648,234.247h59.417a4.359,4.359,0,0,0,4.3-4.112l1.571-34.53a3.906,3.906,0,0,0-3.926-4.112H173.593a4.36,4.36,0,0,0-4.3,4.112l-1.57,34.53A3.906,3.906,0,0,0,171.648,234.247Z" transform="translate(-167.719 -191.493)" fill="#fff" opacity="0.2"/>
          </g>
          <rect id="Rectangle_171" data-name="Rectangle 171" width="11.348" height="20.864" transform="translate(29.096 21.89)" fill="#407bff"/>
          <g id="Group_155" data-name="Group 155" transform="translate(28.526 19.662)">
            <path id="Path_39458" data-name="Path 39458" d="M215.215,220.1l5.01,34.069H207.95L202.94,220.1Zm-7.21,10.825.811,5.505a1.716,1.716,0,0,0,1.7,1.471h1.849a1.724,1.724,0,0,0,1.7-1.973l-.811-5.505a1.716,1.716,0,0,0-1.7-1.471H209.71A1.724,1.724,0,0,0,208.005,230.925Z" transform="translate(-202.94 -220.1)" fill="#407bff"/>
            <path id="Path_39459" data-name="Path 39459" d="M215.215,220.1l5.01,34.069H207.95L202.94,220.1Zm-7.21,10.825.811,5.505a1.716,1.716,0,0,0,1.7,1.471h1.849a1.724,1.724,0,0,0,1.7-1.973l-.811-5.505a1.716,1.716,0,0,0-1.7-1.471H209.71A1.724,1.724,0,0,0,208.005,230.925Z" transform="translate(-202.94 -220.1)" fill="#fff" opacity="0.2"/>
          </g>
          <g id="Group_156" data-name="Group 156" transform="translate(20.826 51.243)">
            <path id="Path_39460" data-name="Path 39460" d="M201.6,266.051h21.481l2.638,2.5H195.885Z" transform="translate(-195.885 -266.051)" fill="#407bff"/>
            <path id="Path_39461" data-name="Path 39461" d="M201.6,266.051h21.481l2.638,2.5H195.885Z" transform="translate(-195.885 -266.051)" fill="#fff" opacity="0.2"/>
          </g>
        </g>
        <g id="Group_163" data-name="Group 163" transform="translate(135.701 2.471)">
          <g id="Group_160" data-name="Group 160" transform="translate(0 9.153)">
            <g id="Group_158" data-name="Group 158">
              <path id="Path_39462" data-name="Path 39462" d="M154.681,242.882c1.213-.664.8-7.3.266-11.079-.643-4.571-2.57-12.661-8.683-17.142-2.913-2.136-5.7-3.953-6.187-6.255-.892,2.043-5.975,16.664,1.271,23.225C147.478,237.18,152.019,235.943,154.681,242.882Z" transform="translate(-137.513 -208.406)" fill="#564fff"/>
            </g>
            <g id="Group_159" data-name="Group 159" opacity="0.2">
              <path id="Path_39463" data-name="Path 39463" d="M154.681,242.882c1.213-.664.8-7.3.266-11.079-.643-4.571-2.57-12.661-8.683-17.142-2.913-2.136-5.7-3.953-6.187-6.255-.892,2.043-5.975,16.664,1.271,23.225C147.478,237.18,152.019,235.943,154.681,242.882Z" transform="translate(-137.513 -208.406)" fill="#564fff"/>
            </g>
          </g>
          <g id="Group_161" data-name="Group 161" transform="translate(15.028)">
            <path id="Path_39464" data-name="Path 39464" d="M105.338,234.966c-1.413-.788.2-8.493,1.494-12.88,1.562-5.3,5.316-14.681,13.728-19.809,4.011-2.445,7.808-4.519,8.8-7.189.783,2.388,3.293,21.172-6.888,28.7C113.861,230.159,109.824,226.935,105.338,234.966Z" transform="translate(-104.789 -195.088)" fill="#407bff"/>
            <path id="Path_39465" data-name="Path 39465" d="M110.538,236.432a.188.188,0,0,0,.181-.136,119.713,119.713,0,0,1,7.859-18.841c5.159-10.143,12.087-11.789,12.156-11.8a.189.189,0,0,0,.144-.225.187.187,0,0,0-.225-.143c-.07.016-7.164,1.687-12.41,12a120.149,120.149,0,0,0-7.885,18.908.188.188,0,0,0,.129.233A.168.168,0,0,0,110.538,236.432Z" transform="translate(-109.282 -198.275)" fill="#fff"/>
            <path id="Path_39466" data-name="Path 39466" d="M117.519,214.281a.187.187,0,0,0,.13-.052.189.189,0,0,0,.008-.266,8.458,8.458,0,0,0-9.725-1.439.188.188,0,1,0,.166.338,8.079,8.079,0,0,1,9.284,1.36A.189.189,0,0,0,117.519,214.281Z" transform="translate(-94.375 -200.242)" fill="#fff"/>
            <path id="Path_39467" data-name="Path 39467" d="M126.842,231.557a.188.188,0,0,0,.162-.284c-.033-.058-3.452-5.732-8.47-4.339a.189.189,0,1,0,.1.364c4.747-1.315,8.012,4.112,8.044,4.167A.189.189,0,0,0,126.842,231.557Z" transform="translate(-110.963 -204.977)" fill="#fff"/>
            <path id="Path_39468" data-name="Path 39468" d="M127.4,218.493a.188.188,0,0,0,.182-.14,2.83,2.83,0,0,0-.177-1.951,1.444,1.444,0,0,0-.99-.655.184.184,0,0,0-.221.148.187.187,0,0,0,.147.221,1.068,1.068,0,0,1,.743.484,2.494,2.494,0,0,1,.134,1.656.188.188,0,0,0,.133.231A.193.193,0,0,0,127.4,218.493Z" transform="translate(-116.967 -201.547)" fill="#fff"/>
          </g>
          <g id="Group_162" data-name="Group 162" transform="translate(6.328 36.361)">
            <path id="Path_39469" data-name="Path 39469" d="M129.116,247.993h17.4l-1.6,14.892h-14.2Z" transform="translate(-129.116 -247.993)" fill="#407bff"/>
            <path id="Path_39470" data-name="Path 39470" d="M129.116,247.993h17.4l-1.6,14.892h-14.2Z" transform="translate(-129.116 -247.993)" fill="#fff" opacity="0.7"/>
          </g>
        </g>
        <g id="Group_165" data-name="Group 165" transform="translate(0 38.555)">
          <g id="Group_164" data-name="Group 164">
            <path id="Path_39471" data-name="Path 39471" d="M343.543,249.264v-.927a.748.748,0,0,1,.748-.748h9.254a.748.748,0,0,1,.748.748v14.439H343.543V261.1c-2.34,0-4.173-2.6-4.173-5.919S341.2,249.264,343.543,249.264Zm0,10.331v-8.823c-1.445,0-2.665,2.02-2.665,4.411S342.1,259.6,343.543,259.6Z" transform="translate(-339.37 -247.59)" fill="#407bff"/>
            <path id="Path_39472" data-name="Path 39472" d="M343.543,249.264v-.927a.748.748,0,0,1,.748-.748h9.254a.748.748,0,0,1,.748.748v14.439H343.543V261.1c-2.34,0-4.173-2.6-4.173-5.919S341.2,249.264,343.543,249.264Zm0,10.331v-8.823c-1.445,0-2.665,2.02-2.665,4.411S342.1,259.6,343.543,259.6Z" transform="translate(-339.37 -247.59)" fill="#fff" opacity="0.2"/>
          </g>
          <path id="Path_39473" data-name="Path 39473" d="M353.23,252.22h1.223l-1.223,3.392Z" transform="translate(-349.058 -249.038)" opacity="0.3"/>
          <path id="Path_39474" data-name="Path 39474" d="M353.23,267.25h1.223l-1.223.567Z" transform="translate(-349.058 -253.738)" opacity="0.3"/>
        </g>
      </g>
    </g>
  </g>
</svg>
