<svg xmlns="http://www.w3.org/2000/svg" width="200.305" height="182" viewBox="0 0 200.305 182">
  <g id="Group_40174" data-name="Group 40174" transform="translate(18259.766 8713.629)">
    <g id="Group_1276" data-name="Group 1276" transform="translate(-18259.766 -8713.629)">
      <g id="Group_1263" data-name="Group 1263" transform="translate(18.98 0)">
        <path id="Path_39590" data-name="Path 39590" d="M150.891,138.823s-11.038-3.549-15.919,8.874-11.758,4.326-13.865,14.2-10.094,5.657-8.652,14.641c0,0-.776-4.011,4.1-6.054s5.934-3.1,5.934-3.1-8.153,3.272-8.153,10.815c4.548,0,7.377-.389,11.758,3.993s20.9,8.469,28.507,1.867,7.841-4.462,7.841-4.462,4.8-4.76.589-14.154C158.674,155.724,170.359,142.151,150.891,138.823Z" transform="translate(-105.593 -132.628)" fill="#010101"/>
        <path id="Path_39591" data-name="Path 39591" d="M227.211,235.892s-16.965,2.354-27.785.8-39.034-30.518-32.935-40.872c4.872-8.272,16.6,5.162,36.413,28.86l23.19,7.01s3.89-4.468,7.977-2.234,8,3.239,6.543,4.691-6.543.446-6.543.446A15.452,15.452,0,0,1,227.211,235.892Z" transform="translate(-126.195 -153.882)" fill="#d38254"/>
        <path id="Path_39592" data-name="Path 39592" d="M173.623,217.4s-12-13.866-6.542-22.537,21.909,11.024,21.909,11.024S183.031,214.52,173.623,217.4Z" transform="translate(-126.202 -153.605)" fill="#e3f8ff"/>
        <g id="Group_1259" data-name="Group 1259" transform="translate(0 63.81)">
          <path id="Path_39593" data-name="Path 39593" d="M140.123,281.176c0-15.032,5.645-18.253,5.645-31.318s-8.411-16.822-8.411-16.822h-35.97s8.411,8.819,8.411,16.822c0,13.064-5.645,16.285-5.645,31.318a13.011,13.011,0,0,0,8.411,12.429h35.971A13.011,13.011,0,0,1,140.123,281.176Z" transform="translate(-101.387 -233.037)" fill="#565656"/>
          <path id="Path_39594" data-name="Path 39594" d="M162.543,334.871l-1.469-.263-9.983,55.837h1.516Z" transform="translate(-120.578 -272.255)" fill="#565656"/>
          <path id="Path_39595" data-name="Path 39595" d="M115.166,334.871l-1.469-.263-9.983,55.837h1.516Z" transform="translate(-102.285 -272.255)" fill="#565656"/>
          <path id="Path_39596" data-name="Path 39596" d="M157.594,334.871l1.469-.263,9.983,55.837h-1.516Z" transform="translate(-123.089 -272.255)" fill="#565656"/>
          <path id="Path_39597" data-name="Path 39597" d="M204.972,334.871l1.469-.263,9.983,55.837h-1.516Z" transform="translate(-141.382 -272.255)" fill="#565656"/>
          <rect id="Rectangle_18046" data-name="Rectangle 18046" width="53.374" height="2.815" transform="translate(11.177 60.569)" fill="#565656"/>
        </g>
        <g id="Group_1260" data-name="Group 1260" transform="translate(16.39 95.214)">
          <path id="Path_39598" data-name="Path 39598" d="M167.989,290.855s54.254-6.8,63.776,20.555c4.232,7.859-2.012,51.688-2.012,51.688l-6.267-1.367s-8.642-28.731-2.9-43.543c-47.457-1.814-48.8-5.872-52.6-27.333" transform="translate(-143.493 -286.475)" fill="#16161b" opacity="0.9"/>
          <path id="Path_39599" data-name="Path 39599" d="M233.375,316.244s12.87,5.08,16.029,8.238-.779,16.139,2.449,43.409" transform="translate(-168.739 -296.568)" fill="none" stroke="#396bb2" stroke-linecap="round" stroke-miterlimit="10" stroke-width="0.5"/>
          <path id="Path_39600" data-name="Path 39600" d="M254.683,414.708s-1.891-5.183-2.75-17.223a38.246,38.246,0,0,1,13.034,1.44c-.215,1.883-.958,5.444,1.869,9.071,2.276,2.921,4.112,2.888,5.858,3.3a4.054,4.054,0,0,1,3.342,3.417Z" transform="translate(-175.904 -327.921)" fill="#16161b"/>
          <path id="Path_39601" data-name="Path 39601" d="M200.717,309.127c-4.281-12.3-19.359-17.434-34.661-19.365a34.852,34.852,0,0,0-.945-5.57,116.355,116.355,0,0,1-35.786.553c-1.96,9.162-1.486,14.613.648,18.245,4.227,9.676,17.4,11.568,52.653,12.916l-17.748,35.842,5.185,5.261S204.949,316.986,200.717,309.127Z" transform="translate(-128.085 -284.192)" fill="#16161b"/>
          <path id="Path_39602" data-name="Path 39602" d="M149.532,286.7s-8.387,16.721,16.682,20.148,35.559,4.17,34,8.888-21.5,33.9-21.5,33.9" transform="translate(-135.846 -285.158)" fill="none" stroke="#396bb2" stroke-linecap="round" stroke-miterlimit="10" stroke-width="0.5"/>
          <path id="Path_39603" data-name="Path 39603" d="M162.97,286.7s-.84,1.839.941,4.645c3.583,5.643.655,10.439-4.788,12.118" transform="translate(-140.069 -285.158)" fill="none" stroke="#396bb2" stroke-linecap="round" stroke-miterlimit="10" stroke-width="0.5"/>
          <path id="Path_39604" data-name="Path 39604" d="M176.908,392.825s2.287-4.983,10.025-14.246a38.245,38.245,0,0,1,8.383,10.084l-1.369,1.129c-3.025,2.5-4.841,7.506-2.946,11.2.724,1.411,2.325,2.554,1.816,4.818-.036.161-.784,1.61-.784,1.61Z" transform="translate(-146.936 -320.636)" fill="#16161b"/>
          <path id="Path_39605" data-name="Path 39605" d="M129.3,288.79a121.121,121.121,0,0,0,20.266,1.23c11.174-.268,16.539-1.906,16.539-1.906" transform="translate(-128.553 -285.706)" fill="none" stroke="#396bb2" stroke-linecap="round" stroke-miterlimit="10" stroke-width="0.5"/>
        </g>
        <path id="Path_39606" data-name="Path 39606" d="M165.227,248.09a32.483,32.483,0,0,0-1.1-3.479c-6.314-16.638,5.292-15.264,5.292-29.47,0-4.316-11.032-31.891-27.354-22.521,0,0-4.866-5.415-11.542,24.727-2.27,10.246-5.176,22.031-4.771,31.82A147.455,147.455,0,0,0,165.227,248.09Z" transform="translate(-110.781 -152.848)" fill="#ff564f"/>
        <path id="Path_39607" data-name="Path 39607" d="M166.323,212.236a9.588,9.588,0,0,0,4.99,2.766c2.239.413,4.78-.1,3.495-5.237-1.529-6.111-7.618-16.962-7.618-16.962l-9.663,1.137S160.053,205.934,166.323,212.236Z" transform="translate(-123.063 -153.661)" fill="#d38254"/>
        <path id="Path_39608" data-name="Path 39608" d="M149.54,187.352l4.945-20.7,11.052,9.868-2.162,12.46S157.858,193.371,149.54,187.352Z" transform="translate(-119.979 -143.554)" fill="#d38254"/>
        <path id="Path_39609" data-name="Path 39609" d="M166.214,142.844s-11.184-1.5-11.184,14.021c0,4.95.524,8.9,2.686,10.7,7.268,6.029,13.974,5.064,17,0a20.117,20.117,0,0,0,2.686-10.7C177.4,141.342,166.214,142.844,166.214,142.844Z" transform="translate(-122.099 -134.346)" fill="#e29867"/>
        <g id="Group_1262" data-name="Group 1262" transform="translate(31.884 18.726)">
          <ellipse id="Ellipse_14" data-name="Ellipse 14" cx="5.173" cy="5.173" rx="5.173" ry="5.173" transform="translate(0 5.412) rotate(-13.234)" fill="#db804d"/>
          <g id="Group_1261" data-name="Group 1261" transform="translate(18.532 4.119)">
            <path id="Path_39610" data-name="Path 39610" d="M183.513,171.384a5.151,5.151,0,0,0,2.65,4.49,19.583,19.583,0,0,0,2.232-9.634A5.16,5.16,0,0,0,183.513,171.384Z" transform="translate(-183.513 -166.24)" fill="#db804d"/>
          </g>
          <path id="Path_39611" data-name="Path 39611" d="M174.3,178.7s2.132-1.224,2.764,0c.632-1.263,2.15,0,2.15,0a2.51,2.51,0,0,1-2.2,1.58A2.446,2.446,0,0,1,174.3,178.7Z" transform="translate(-161.422 -166.715)" fill="#ca4f24"/>
          <ellipse id="Ellipse_15" data-name="Ellipse 15" cx="0.811" cy="0.811" rx="0.811" ry="0.811" transform="translate(10.166 3.548)" fill="#010101"/>
          <path id="Path_39612" data-name="Path 39612" d="M166.553,164.817a4.514,4.514,0,0,1,4.69.781" transform="translate(-158.432 -161.44)" fill="none" stroke="#010101" stroke-linecap="round" stroke-linejoin="round" stroke-width="0.5"/>
          <path id="Path_39613" data-name="Path 39613" d="M185.936,166.121a.811.811,0,1,0,.812-.811A.812.812,0,0,0,185.936,166.121Z" transform="translate(-165.916 -161.762)" fill="#010101"/>
          <path id="Path_39614" data-name="Path 39614" d="M187.295,164.817a4.515,4.515,0,0,0-4.691.781" transform="translate(-164.63 -161.44)" fill="none" stroke="#010101" stroke-linecap="round" stroke-linejoin="round" stroke-width="0.5"/>
          <path id="Path_39615" data-name="Path 39615" d="M182.6,161.825a4.513,4.513,0,0,1,4.691.781" transform="translate(-164.63 -160.284)" fill="none" stroke="#010101" stroke-linecap="round" stroke-linejoin="round" stroke-width="0.5"/>
          <path id="Path_39616" data-name="Path 39616" d="M171.243,161.825a4.512,4.512,0,0,0-4.69.781" transform="translate(-158.432 -160.284)" fill="none" stroke="#010101" stroke-linecap="round" stroke-linejoin="round" stroke-width="0.5"/>
          <path id="Path_39617" data-name="Path 39617" d="M172.758,178.4a7.393,7.393,0,0,0,6.666.158" transform="translate(-160.828 -166.817)" fill="none" stroke="#010101" stroke-linecap="round" stroke-linejoin="round" stroke-width="0.5"/>
          <ellipse id="Ellipse_16" data-name="Ellipse 16" cx="3.773" cy="3.773" rx="3.773" ry="3.773" transform="translate(6.693)" fill="none" stroke="#ffcf34" stroke-linecap="round" stroke-miterlimit="10" stroke-width="0.5"/>
          <ellipse id="Ellipse_17" data-name="Ellipse 17" cx="3.773" cy="3.773" rx="3.773" ry="3.773" transform="translate(16.547)" fill="none" stroke="#ffcf34" stroke-linecap="round" stroke-miterlimit="10" stroke-width="0.5"/>
          <path id="Path_39618" data-name="Path 39618" d="M180.96,170.163c-.98-2.487-1.75-4.488-1.75-4.488v6.543S181.939,172.651,180.96,170.163Z" transform="translate(-163.319 -161.903)" fill="#db804d"/>
          <path id="Path_39619" data-name="Path 39619" d="M179.21,165.675s1.961,4.548,1.961,5.491-1.031,1.052-1.961,1.052" transform="translate(-163.319 -161.903)" fill="none" stroke="#010101" stroke-linecap="round" stroke-linejoin="round" stroke-width="0.5"/>
          <line id="Line_2" data-name="Line 2" x2="2.309" transform="translate(14.239 3.773)" fill="none" stroke="#ffcf34" stroke-linecap="round" stroke-miterlimit="10" stroke-width="0.5"/>
          <line id="Line_3" data-name="Line 3" x2="1.879" transform="translate(4.815 3.848)" fill="none" stroke="#ffcf34" stroke-linecap="round" stroke-miterlimit="10" stroke-width="0.5"/>
        </g>
        <path id="Path_39620" data-name="Path 39620" d="M200.212,232.32s-18.348,6.5-29.168,4.948-32.456-29.489-26.358-39.843c4.872-8.272,10.027,4.133,29.836,27.832l24.573,2.861s3.89-4.468,7.977-2.234,8,3.239,6.543,4.691-6.543.447-6.543.447A15.459,15.459,0,0,1,200.212,232.32Z" transform="translate(-117.694 -154.458)" fill="#e29867"/>
        <path id="Path_39621" data-name="Path 39621" d="M146.921,217.16s-8.481-16.19-1.236-23.435c8.5-8.5,18.823,15.725,18.823,15.725S156.737,216.5,146.921,217.16Z" transform="translate(-117.36 -153.319)" fill="#e3f8ff"/>
        <path id="Path_39622" data-name="Path 39622" d="M155.364,140.042s-6.245-1.721-3.793-7.1,11.638-5.709,12.162,2.149A13.484,13.484,0,0,0,155.364,140.042Z" transform="translate(-120.543 -129.026)" fill="#010101"/>
        <path id="Path_39623" data-name="Path 39623" d="M153.471,153.754s8.655,2.329,12.813-7.321c-.833,4.216-4.659,6.989-4.659,6.989s4.792-.555,7.692-6.1a6.172,6.172,0,0,1-2.209,6.156s7.882.832,8.659-4.049c1.331,2.068,0,4.992,0,4.992s2.883-1.2,1.7-6.212-7.458-8.556-15.855-7.472S153.471,153.754,153.471,153.754Z" transform="translate(-121.497 -133.472)" fill="#010101"/>
        <path id="Path_39624" data-name="Path 39624" d="M155.651,159.1s-3.534,3.217-.99,10.316,8.082,10.243,5.061,18.714c-4.005-6.125-10.609-11.837-15.606-6.18C138.745,188.032,145.225,156.885,155.651,159.1Z" transform="translate(-117.14 -140.596)" fill="#010101"/>
        <path id="Path_39625" data-name="Path 39625" d="M149.06,226.209s11.931-2.136,17.338-8.3" transform="translate(-119.794 -163.358)" fill="none" stroke="#396bb2" stroke-linecap="round" stroke-miterlimit="10" stroke-width="0.5" stroke-dasharray="2"/>
        <path id="Path_39626" data-name="Path 39626" d="M194.622,217.94a26.666,26.666,0,0,0,4.75-5.13" transform="translate(-137.386 -161.388)" fill="none" stroke="#396bb2" stroke-linecap="round" stroke-miterlimit="10" stroke-width="0.5" stroke-dasharray="2"/>
        <path id="Path_39627" data-name="Path 39627" d="M142.757,209.254A78.808,78.808,0,0,0,147,224.119a8.313,8.313,0,0,0,1.865-.214" transform="translate(-117.36 -160.015)" fill="none" stroke="#396bb2" stroke-linecap="round" stroke-miterlimit="10" stroke-width="0.5"/>
        <path id="Path_39628" data-name="Path 39628" d="M180.846,197.862s6.558,8.467,8.641,15.3" transform="translate(-132.067 -155.615)" fill="none" stroke="#396bb2" stroke-linecap="round" stroke-miterlimit="10" stroke-width="0.5"/>
        <path id="Path_39629" data-name="Path 39629" d="M126.32,282.79s19.412,1.816,37.915-1.1" transform="translate(-111.014 -187.993)" fill="none" stroke="#396bb2" stroke-linecap="round" stroke-miterlimit="10" stroke-width="0.5" stroke-dasharray="2"/>
        <line id="Line_4" data-name="Line 4" x2="13.841" y2="13.326" transform="translate(47.717 167.064)" fill="none" stroke="#fff4d4" stroke-linecap="round" stroke-miterlimit="10" stroke-width="0.5"/>
        <line id="Line_5" data-name="Line 5" x2="19.48" transform="translate(95.575 180.869)" fill="none" stroke="#fff4d4" stroke-linecap="round" stroke-miterlimit="10" stroke-width="0.5"/>
      </g>
      <g id="Group_1266" data-name="Group 1266" transform="translate(0 82.668)">
        <g id="Group_1265" data-name="Group 1265">
          <g id="Group_1264" data-name="Group 1264" transform="translate(0 1.015)">
            <rect id="Rectangle_18047" data-name="Rectangle 18047" width="2.374" height="98.316" fill="#16161b"/>
            <rect id="Rectangle_18048" data-name="Rectangle 18048" width="2.375" height="98.316" transform="translate(167.315)" fill="#16161b"/>
          </g>
          <rect id="Rectangle_18049" data-name="Rectangle 18049" width="169.689" height="3.014" fill="#16161b"/>
        </g>
      </g>
      <g id="Group_1268" data-name="Group 1268" transform="translate(80.82 48.727)">
        <path id="Path_39630" data-name="Path 39630" d="M268.728,260.342H203.675a1.048,1.048,0,0,0-1.049,1.048h0a1.048,1.048,0,0,0,1.049,1.048h65.053a1.048,1.048,0,0,0,1.048-1.048h0A1.048,1.048,0,0,0,268.728,260.342Z" transform="translate(-202.626 -228.469)" fill="#bef0fc"/>
        <path id="Path_39631" data-name="Path 39631" d="M285.193,208.423H235.14a4.837,4.837,0,0,0-4.5,3.7l-5.7,26.565a2.9,2.9,0,0,0,2.908,3.7h50.052a4.837,4.837,0,0,0,4.5-3.7l5.7-26.565A2.9,2.9,0,0,0,285.193,208.423Z" transform="translate(-211.211 -208.423)" fill="#bef0fc"/>
        <g id="Group_1267" data-name="Group 1267" transform="translate(43.983 6.159)">
          <path id="Path_39632" data-name="Path 39632" d="M278.691,218.455a3.312,3.312,0,1,1-4.418,4.567,4.19,4.19,0,1,0,4.418-4.567Z" transform="translate(-274.273 -218.455)" fill="#fff"/>
        </g>
      </g>
      <g id="Group_1275" data-name="Group 1275" transform="translate(124.048 16.793)">
        <path id="Path_39640" data-name="Path 39640" d="M281.819,156.637a11.133,11.133,0,0,0-3.462,20.37l.171,6.089,4.28-4.527a11.137,11.137,0,1,0-.988-21.932Z" transform="translate(-273.044 -156.381)" fill="#564fff"/>
        <g id="Group_1274" data-name="Group 1274" transform="translate(4.63 7.999)">
          <path id="Path_39641" data-name="Path 39641" d="M280.585,173.482v-.6l3.251-2.187v.77l-2.567,1.7v.035l2.567,1.7v.77Z" transform="translate(-280.585 -169.906)" fill="#fff"/>
          <path id="Path_39642" data-name="Path 39642" d="M291.8,169.411h.741l-4.353,7.539h-.732Z" transform="translate(-283.238 -169.411)" fill="#fff"/>
          <path id="Path_39643" data-name="Path 39643" d="M297.318,174.9l2.567-1.7v-.035l-2.567-1.7v-.77l3.251,2.187v.6l-3.251,2.187Z" transform="translate(-287.046 -169.906)" fill="#fff"/>
        </g>
      </g>
    </g>
    <g id="Group_1279" data-name="Group 1279" transform="translate(-18106.756 -8650.626)">
      <g id="Group_1277" data-name="Group 1277" transform="translate(0 0)">
        <path id="Path_39644" data-name="Path 39644" d="M418.619,262.668c-6.651-3.16-14.781-1.274-17.773,16.217s4.716,20.2,1.266,30.392-2.375,22.292-2.375,22.292h8.534c19.463-24.181.246-27.8,10.347-40.119S425.271,265.828,418.619,262.668Z" transform="translate(-377.977 -243.185)" fill="#36ccb1"/>
        <path id="Path_39645" data-name="Path 39645" d="M421.453,263.46s-8.878,7.432-8.878,25.981,6.1,22.861-5.656,41.152" transform="translate(-380.81 -243.977)" fill="none" stroke="#27ac99" stroke-linecap="round" stroke-miterlimit="10" stroke-width="0.5"/>
        <path id="Path_39646" data-name="Path 39646" d="M419.88,270.6a14.893,14.893,0,0,1-3.748-7.851" transform="translate(-384.368 -243.703)" fill="none" stroke="#27ac99" stroke-linecap="round" stroke-miterlimit="10" stroke-width="0.5"/>
        <path id="Path_39647" data-name="Path 39647" d="M418.752,285.64s4.842,2.214,13.617,0" transform="translate(-385.38 -252.541)" fill="none" stroke="#27ac99" stroke-linecap="round" stroke-miterlimit="10" stroke-width="0.5"/>
        <path id="Path_39648" data-name="Path 39648" d="M410.827,294.336a23.3,23.3,0,0,1-8.718-9.5" transform="translate(-378.954 -252.231)" fill="none" stroke="#27ac99" stroke-linecap="round" stroke-miterlimit="10" stroke-width="0.5"/>
        <path id="Path_39649" data-name="Path 39649" d="M416.286,310.323s3.865-.048,10.221-3.052" transform="translate(-384.427 -260.893)" fill="none" stroke="#27ac99" stroke-linecap="round" stroke-miterlimit="10" stroke-width="0.5"/>
        <path id="Path_39650" data-name="Path 39650" d="M414.547,325.721s-2.6-2.7-5.337-5.437" transform="translate(-381.695 -265.917)" fill="none" stroke="#27ac99" stroke-linecap="round" stroke-miterlimit="10" stroke-width="0.5"/>
        <path id="Path_39651" data-name="Path 39651" d="M418.752,337.857s2.563.144,5.532-2.662" transform="translate(-385.38 -271.675)" fill="none" stroke="#27ac99" stroke-linecap="round" stroke-miterlimit="10" stroke-width="0.5"/>
        <path id="Path_39652" data-name="Path 39652" d="M414.916,350.048a13.408,13.408,0,0,1-3.054-4.3" transform="translate(-382.719 -275.748)" fill="none" stroke="#27ac99" stroke-linecap="round" stroke-miterlimit="10" stroke-width="0.5"/>
        <path id="Path_39653" data-name="Path 39653" d="M413.556,360.064a8.723,8.723,0,0,0,6.98-1.651" transform="translate(-383.373 -280.639)" fill="none" stroke="#27ac99" stroke-linecap="round" stroke-miterlimit="10" stroke-width="0.5"/>
        <path id="Path_39654" data-name="Path 39654" d="M379.664,320.309s-7.391-8.092-3.942-17.454-4.681-11.936-6.405-19.025,2.464-12.556,3.7-19.554-8.623-12.4-8.623-22.388,17-15.9,24.143-1.855-2.71,27.387,2.217,35.62,7.391,20.555,3.449,30.408-1.971,14.248-1.971,14.248Z" transform="translate(-364.39 -231.723)" fill="#53eece"/>
        <path id="Path_39655" data-name="Path 39655" d="M377.92,232.507s8.525,7.611,8.525,22.375-6.664,22.6,3,34.493-5.612,17.377,1.767,33.579" transform="translate(-369.614 -232.026)" fill="none" stroke="#27ac99" stroke-linecap="round" stroke-miterlimit="10" stroke-width="0.5"/>
        <path id="Path_39656" data-name="Path 39656" d="M379.3,250.091s-5.041,2.179-14.912-.962" transform="translate(-364.39 -238.444)" fill="none" stroke="#27ac99" stroke-linecap="round" stroke-miterlimit="10" stroke-width="0.5"/>
        <path id="Path_39657" data-name="Path 39657" d="M391.692,260.617s6.822.066,9.215-7.562" transform="translate(-374.932 -239.96)" fill="none" stroke="#27ac99" stroke-linecap="round" stroke-miterlimit="10" stroke-width="0.5"/>
        <path id="Path_39658" data-name="Path 39658" d="M385.561,285.79a9.6,9.6,0,0,1-6.954-3.13" transform="translate(-369.879 -251.39)" fill="none" stroke="#27ac99" stroke-linecap="round" stroke-miterlimit="10" stroke-width="0.5"/>
        <path id="Path_39659" data-name="Path 39659" d="M388.2,299.485a11.645,11.645,0,0,0,10.427-2.669" transform="translate(-373.583 -256.856)" fill="none" stroke="#27ac99" stroke-linecap="round" stroke-miterlimit="10" stroke-width="0.5"/>
        <path id="Path_39660" data-name="Path 39660" d="M385.536,319.813a16.868,16.868,0,0,1-12.526-1.261" transform="translate(-367.718 -265.249)" fill="none" stroke="#27ac99" stroke-linecap="round" stroke-miterlimit="10" stroke-width="0.5"/>
        <path id="Path_39661" data-name="Path 39661" d="M401.187,328.354s6.214-3.046,8.141-7.227" transform="translate(-378.598 -266.243)" fill="none" stroke="#27ac99" stroke-linecap="round" stroke-miterlimit="10" stroke-width="0.5"/>
        <path id="Path_39662" data-name="Path 39662" d="M392.17,351.756s-4.233.925-9.32-4.161" transform="translate(-371.518 -276.462)" fill="none" stroke="#27ac99" stroke-linecap="round" stroke-miterlimit="10" stroke-width="0.5"/>
        <path id="Path_39663" data-name="Path 39663" d="M404.732,361.624s-2.659,3.1-8.527,3.1" transform="translate(-376.674 -281.879)" fill="none" stroke="#27ac99" stroke-linecap="round" stroke-miterlimit="10" stroke-width="0.5"/>
      </g>
      <g id="Group_1278" data-name="Group 1278" transform="translate(5.053 84.01)">
        <path id="Path_39664" data-name="Path 39664" d="M409.417,368.572H372.709s-.128,1.723-.075,4.368h36.858C409.545,370.295,409.417,368.572,409.417,368.572Z" transform="translate(-372.621 -368.572)" fill="#564fff"/>
        <path id="Path_39665" data-name="Path 39665" d="M373.6,387.19a43.914,43.914,0,0,0,.973,4.4,32.727,32.727,0,0,0,1.529,4.336,22.757,22.757,0,0,0,2.505,4.4,15.871,15.871,0,0,0,4.12,3.958v.378h17v-.378a15.871,15.871,0,0,0,4.12-3.958,22.79,22.79,0,0,0,2.505-4.4,32.722,32.722,0,0,0,1.529-4.336,43.93,43.93,0,0,0,.973-4.4c.256-1.5.438-2.964.562-4.336H373.034C373.157,384.226,373.34,385.69,373.6,387.19Z" transform="translate(-372.781 -374.086)" fill="#564fff"/>
        <path id="Path_39666" data-name="Path 39666" d="M372.883,380.087h36.377c.147-1.626.215-3.119.241-4.4H372.642C372.668,376.968,372.736,378.461,372.883,380.087Z" transform="translate(-372.629 -371.319)" fill="#f8f8f8"/>
        <rect id="Rectangle_18052" data-name="Rectangle 18052" width="16.999" height="4.4" transform="translate(9.942 30.575)" fill="#29497c"/>
      </g>
    </g>
  </g>
</svg>
