<svg xmlns="http://www.w3.org/2000/svg" width="25" height="58" viewBox="0 0 25 58">
  <g id="Group_40229" data-name="Group 40229" transform="translate(-812 -1417)">
    <rect id="Rectangle_4" data-name="Rectangle 4" width="3" height="3" rx="1.5" transform="translate(826 1439) rotate(90)" fill="#ff564f"/>
    <rect id="Rectangle_5" data-name="Rectangle 5" width="3" height="3" rx="1.5" transform="translate(815 1439) rotate(90)" fill="#ff564f"/>
    <rect id="Rectangle_18056" data-name="Rectangle 18056" width="3" height="3" rx="1.5" transform="translate(826 1450) rotate(90)" fill="#ff564f"/>
    <rect id="Rectangle_18057" data-name="Rectangle 18057" width="3" height="3" rx="1.5" transform="translate(815 1450) rotate(90)" fill="#ff564f"/>
    <rect id="Rectangle_18065" data-name="Rectangle 18065" width="3" height="3" rx="1.5" transform="translate(837 1439) rotate(90)" fill="#ff564f"/>
    <rect id="Rectangle_18066" data-name="Rectangle 18066" width="3" height="3" rx="1.5" transform="translate(837 1450) rotate(90)" fill="#ff564f"/>
    <rect id="Rectangle_18069" data-name="Rectangle 18069" width="3" height="3" rx="1.5" transform="translate(826 1461) rotate(90)" fill="#ff564f"/>
    <rect id="Rectangle_18070" data-name="Rectangle 18070" width="3" height="3" rx="1.5" transform="translate(815 1461) rotate(90)" fill="#ff564f"/>
    <rect id="Rectangle_18071" data-name="Rectangle 18071" width="3" height="3" rx="1.5" transform="translate(837 1461) rotate(90)" fill="#ff564f"/>
    <rect id="Rectangle_18073" data-name="Rectangle 18073" width="3" height="3" rx="1.5" transform="translate(826 1472) rotate(90)" fill="#ff564f"/>
    <rect id="Rectangle_18074" data-name="Rectangle 18074" width="3" height="3" rx="1.5" transform="translate(815 1472) rotate(90)" fill="#ff564f"/>
    <rect id="Rectangle_18075" data-name="Rectangle 18075" width="3" height="3" rx="1.5" transform="translate(837 1472) rotate(90)" fill="#ff564f"/>
    <rect id="Rectangle_18077" data-name="Rectangle 18077" width="3" height="3" rx="1.5" transform="translate(826 1428) rotate(90)" fill="#ff564f"/>
    <rect id="Rectangle_18078" data-name="Rectangle 18078" width="3" height="3" rx="1.5" transform="translate(815 1428) rotate(90)" fill="#ff564f"/>
    <rect id="Rectangle_18079" data-name="Rectangle 18079" width="3" height="3" rx="1.5" transform="translate(837 1428) rotate(90)" fill="#ff564f"/>
    <rect id="Rectangle_18081" data-name="Rectangle 18081" width="3" height="3" rx="1.5" transform="translate(826 1417) rotate(90)" fill="#ff564f"/>
    <rect id="Rectangle_18082" data-name="Rectangle 18082" width="3" height="3" rx="1.5" transform="translate(815 1417) rotate(90)" fill="#ff564f"/>
    <rect id="Rectangle_18083" data-name="Rectangle 18083" width="3" height="3" rx="1.5" transform="translate(837 1417) rotate(90)" fill="#ff564f"/>
  </g>
</svg>
