<svg xmlns="http://www.w3.org/2000/svg" width="142.857" height="100" viewBox="0 0 142.857 100">
  <path id="Icon_ionic-ios-arrow-round-forward" data-name="Icon ionic-ios-arrow-round-forward" d="M59.629,13.166a7.047,7.047,0,0,1,.05,9.583L29.51,54.465H144.331a6.781,6.781,0,0,1,0,13.541H29.559L59.728,99.723a7.1,7.1,0,0,1-.05,9.583,6.212,6.212,0,0,1-9.081-.052L9.711,66.027h0a7.645,7.645,0,0,1-1.34-2.135,6.74,6.74,0,0,1-.5-2.6,6.968,6.968,0,0,1,1.836-4.739L50.6,13.323A6.115,6.115,0,0,1,59.629,13.166Z" transform="translate(-7.875 -11.251)" fill="#fff"/>
</svg>
