<svg xmlns="http://www.w3.org/2000/svg" width="142.857" height="100" viewBox="0 0 142.857 100">
  <path id="Icon_ionic-ios-arrow-round-forward" data-name="Icon ionic-ios-arrow-round-forward" d="M98.978,13.166a7.047,7.047,0,0,0-.05,9.583L129.1,54.465H14.276a6.781,6.781,0,0,0,0,13.541H129.048L98.879,99.722a7.1,7.1,0,0,0,.05,9.583,6.212,6.212,0,0,0,9.081-.052L148.9,66.027h0a7.645,7.645,0,0,0,1.34-2.135,6.74,6.74,0,0,0,.5-2.6,6.968,6.968,0,0,0-1.836-4.739L108.009,13.323A6.115,6.115,0,0,0,98.978,13.166Z" transform="translate(-7.875 -11.251)" fill="#fff"/>
</svg>
